<svg width="227" height="181" viewBox="0 0 227 181" fill="none" xmlns="http://www.w3.org/2000/svg">
<g clip-path="url(#clip0_1548_3035)">
<path d="M206.485 47.4173V40.9854C206.485 40.9254 206.474 40.8659 206.451 40.8104C206.428 40.7549 206.394 40.7045 206.352 40.662C206.309 40.6195 206.259 40.5858 206.203 40.5628C206.148 40.5399 206.088 40.528 206.028 40.528H201.306C201.202 40.5277 201.102 40.4922 201.021 40.4273C200.94 40.3625 200.883 40.2722 200.86 40.1711C200.426 38.3139 199.69 36.5402 198.684 34.9199C198.629 34.8323 198.605 34.7284 198.616 34.6254C198.627 34.5223 198.673 34.4261 198.746 34.3525L202.087 31.0125C202.172 30.9267 202.22 30.8104 202.22 30.6891C202.22 30.5677 202.172 30.4514 202.087 30.3656L197.537 25.8165C197.452 25.7307 197.335 25.6826 197.214 25.6826C197.093 25.6826 196.976 25.7307 196.891 25.8165L193.55 29.1567C193.477 29.2297 193.381 29.2757 193.278 29.287C193.175 29.2984 193.071 29.2745 192.983 29.2193C191.363 28.2128 189.589 27.4776 187.732 27.0428C187.631 27.0198 187.541 26.9633 187.476 26.8825C187.411 26.8016 187.376 26.7012 187.375 26.5976V21.8749C187.375 21.7536 187.327 21.6372 187.241 21.5515C187.155 21.4657 187.039 21.4175 186.918 21.4175H180.486C180.365 21.4175 180.248 21.4657 180.162 21.5515C180.077 21.6372 180.029 21.7536 180.029 21.8749V26.5976C180.028 26.7012 179.993 26.8016 179.928 26.8825C179.863 26.9633 179.773 27.0198 179.672 27.0428C177.814 27.4775 176.041 28.2127 174.421 29.2193C174.333 29.2746 174.229 29.2986 174.126 29.2872C174.023 29.2759 173.927 29.23 173.853 29.157L170.513 25.8165C170.471 25.774 170.42 25.7403 170.365 25.7173C170.309 25.6943 170.25 25.6824 170.19 25.6824C170.129 25.6824 170.07 25.6943 170.014 25.7173C169.959 25.7403 169.909 25.774 169.866 25.8165L165.319 30.3653C165.233 30.4511 165.185 30.5674 165.185 30.6887C165.185 30.81 165.233 30.9263 165.319 31.012L168.659 34.3521C168.732 34.4256 168.778 34.5217 168.789 34.6247C168.8 34.7277 168.777 34.8315 168.721 34.9192C167.715 36.5396 166.98 38.3135 166.545 40.1709C166.522 40.2719 166.466 40.3622 166.385 40.427C166.304 40.4919 166.203 40.5274 166.1 40.5278H161.377C161.256 40.5278 161.14 40.576 161.054 40.6618C160.968 40.7475 160.92 40.8639 160.92 40.9852V47.4171C160.92 47.5384 160.968 47.6547 161.054 47.7405C161.14 47.8263 161.256 47.8745 161.377 47.8745H166.1C166.203 47.8748 166.304 47.9103 166.385 47.9752C166.466 48.04 166.522 48.1303 166.545 48.2314C166.98 50.0886 167.715 51.8623 168.722 53.4826C168.777 53.5702 168.801 53.6741 168.789 53.7771C168.778 53.8801 168.732 53.9762 168.659 54.0497L165.319 57.3902C165.276 57.4326 165.243 57.483 165.22 57.5385C165.197 57.594 165.185 57.6535 165.185 57.7136C165.185 57.7736 165.197 57.8331 165.22 57.8886C165.243 57.9441 165.276 57.9945 165.319 58.0369L169.866 62.5843C169.952 62.67 170.068 62.7182 170.19 62.7182C170.311 62.7182 170.427 62.67 170.513 62.5843L173.853 59.244C173.927 59.171 174.023 59.125 174.126 59.1137C174.229 59.1024 174.333 59.1264 174.42 59.1817C176.04 60.1882 177.814 60.9233 179.672 61.358C179.773 61.381 179.863 61.4375 179.928 61.5183C179.993 61.5992 180.028 61.6996 180.029 61.8032V66.5259C180.029 66.6472 180.077 66.7635 180.162 66.8493C180.248 66.9351 180.365 66.9833 180.486 66.9833H186.918C187.039 66.9833 187.155 66.9351 187.241 66.8493C187.327 66.7635 187.375 66.6472 187.375 66.5259V61.8022C187.376 61.6986 187.411 61.5981 187.476 61.5173C187.541 61.4365 187.631 61.3801 187.732 61.3572C189.589 60.9223 191.363 60.1872 192.984 59.1809C193.071 59.1256 193.175 59.1016 193.278 59.113C193.381 59.1243 193.477 59.1702 193.551 59.2433L196.891 62.5833C196.976 62.669 197.093 62.7172 197.214 62.7172C197.335 62.7172 197.452 62.669 197.537 62.5833L202.087 58.0359C202.172 57.9501 202.22 57.8337 202.22 57.7124C202.22 57.5911 202.172 57.4748 202.087 57.389L198.746 54.0487C198.673 53.9751 198.627 53.879 198.616 53.776C198.605 53.673 198.628 53.5692 198.684 53.4816C199.69 51.8614 200.425 50.0877 200.86 48.2306C200.883 48.1296 200.94 48.0392 201.021 47.9744C201.101 47.9096 201.202 47.8741 201.305 47.8737H206.028C206.149 47.8737 206.265 47.8257 206.351 47.7401C206.437 47.6545 206.485 47.5384 206.485 47.4173ZM184.033 54.3986C181.988 54.4651 179.97 53.915 178.241 52.8198C176.513 51.7246 175.153 50.1349 174.34 48.2571C173.526 46.3794 173.296 44.3005 173.679 42.2903C174.063 40.2801 175.042 38.4317 176.489 36.985C177.936 35.5383 179.785 34.5603 181.795 34.178C183.806 33.7956 185.885 34.0266 187.762 34.841C189.639 35.6553 191.228 37.0154 192.323 38.7445C193.417 40.4737 193.966 42.4919 193.899 44.5372C193.814 47.1264 192.748 49.5864 190.915 51.4179C189.083 53.2493 186.622 54.315 184.033 54.3986Z" fill="#DEE8F5"/>
<path opacity="0.07" d="M226.723 176.033H0C2.48431 169.698 7.07209 164.323 13.5394 162.729C23.0003 160.399 33.0121 166.803 42.4517 164.396C47.8139 163.029 52.0371 159.046 56.4737 155.739C73.2112 143.26 96.1483 139.572 115.954 146.176C126.307 149.627 135.741 155.662 146.346 158.229C160.06 161.548 174.401 158.795 188.503 158.342C202.238 157.9 221.917 163.496 226.723 176.033Z" fill="#F3F5FD"/>
<path d="M152.16 2.20044H81.8029C76.4151 2.20044 72.0475 6.56809 72.0475 11.9559V164.115C72.0475 169.503 76.4151 173.871 81.8029 173.871H152.16C157.547 173.871 161.915 169.503 161.915 164.115V11.9559C161.915 6.56809 157.547 2.20044 152.16 2.20044Z" fill="white"/>
<path d="M152.159 176.071H81.8026C78.6328 176.068 75.5937 174.807 73.3523 172.565C71.1108 170.324 69.85 167.285 69.8465 164.115V11.9559C69.8501 8.78603 71.111 5.74704 73.3525 3.50564C75.594 1.26424 78.633 0.00349851 81.8029 0L152.16 0C155.329 0.00356463 158.368 1.26435 160.61 3.50574C162.851 5.74714 164.112 8.7861 164.116 11.9559V164.115C164.112 167.285 162.851 170.324 160.61 172.565C158.368 174.807 155.329 176.068 152.159 176.071ZM81.8029 4.40098C79.7998 4.40309 77.8793 5.19972 76.4629 6.61607C75.0464 8.03242 74.2497 9.95282 74.2474 11.9559V164.115C74.2497 166.118 75.0464 168.038 76.4627 169.455C77.8791 170.871 79.7994 171.668 81.8024 171.67H152.159C154.162 171.668 156.082 170.871 157.499 169.455C158.915 168.038 159.712 166.118 159.714 164.115V11.9559C159.712 9.95291 158.915 8.03258 157.499 6.61624C156.082 5.19991 154.162 4.40322 152.159 4.40098H81.8029Z" fill="#DEE8F5"/>
<path d="M101.576 2.20044H132.386V8.17815C132.386 9.36483 131.915 10.5029 131.076 11.342C130.236 12.1811 129.098 12.6524 127.912 12.6524H106.051C104.864 12.6524 103.726 12.181 102.887 11.3419C102.048 10.5027 101.576 9.36462 101.576 8.1779V2.20044Z" fill="#DEE8F5"/>
<path d="M99.4083 21.4689H80.2955V40.5817H99.4083V21.4689Z" fill="#DEE8F5"/>
<path d="M153.667 32.5658H103.855V37.6339H153.667V32.5658Z" fill="#DEE8F5"/>
<path d="M139.332 23.4882H103.855V28.5563H139.332V23.4882Z" fill="#DEE8F5"/>
<path d="M153.667 46.0531H80.2955V101.342H153.667V46.0531Z" fill="#DEE8F5"/>
<path d="M153.667 108.547H80.2955V136.192H153.667V108.547Z" fill="#DEE8F5"/>
<path d="M153.667 143.476H80.2955V163.836H153.667V143.476Z" fill="#DEE8F5"/>
<path d="M12.7676 82.729L12.6949 82.6287H12.6974L12.7676 82.729Z" fill="#007BFF"/>
<path d="M117.709 61.498H116.253V85.6366H117.709V61.498Z" fill="white"/>
<path d="M129.05 72.8392H104.912V74.2955H129.05V72.8392Z" fill="white"/>
<path d="M200.093 136.045C200.093 136.045 198.164 135.023 198.595 129.771L194.61 129.032C194.61 129.032 195.057 133.74 193.042 135.235L200.093 136.045Z" fill="#E98862"/>
<path opacity="0.15" d="M193.859 134.251L197.169 131.719L194.569 131.692C194.494 132.582 194.253 133.45 193.859 134.251Z" fill="#1F263F"/>
<path d="M200.856 127.735C200.58 129.328 199.71 130.837 198.305 131.351C196.637 131.962 195.401 132.003 193.477 132.003C190.852 132.003 190.939 129.266 190.865 126.507C190.791 123.737 191.011 120.766 192.049 119.801C194.119 117.874 200.198 119.094 200.937 122.317C201.319 123.984 201.119 126.218 200.856 127.735Z" fill="#E98862"/>
<path d="M189.458 121.402C189.458 121.402 188.383 121.162 188.678 120.09C188.873 119.379 189.784 119.537 189.784 119.537C189.784 119.537 188.921 119.379 188.921 118.626C188.921 118.153 189.286 117.348 190.385 117.808C191.676 118.347 193.147 118.278 194.266 118.089C194.899 117.951 195.542 117.86 196.189 117.818H196.192C196.935 117.805 197.676 117.904 198.39 118.112C200.39 118.71 203.418 120.504 202.774 124.57C202.056 129.108 199.926 130.843 198.989 131.4C198.934 131.433 198.872 131.453 198.807 131.459C198.743 131.465 198.678 131.456 198.618 131.433C198.557 131.41 198.503 131.373 198.458 131.326C198.414 131.279 198.381 131.223 198.362 131.161C198.096 130.311 197.638 128.171 197.766 123.758C191.618 123.457 189.849 123.365 189.849 123.365C189.849 123.365 188.401 123.419 188.401 122.362C188.401 121.305 189.458 121.402 189.458 121.402Z" fill="#1F263F"/>
<path d="M194.616 126.507C194.816 126.507 194.978 126.345 194.978 126.146C194.978 125.946 194.816 125.784 194.616 125.784C194.417 125.784 194.255 125.946 194.255 126.146C194.255 126.345 194.417 126.507 194.616 126.507Z" fill="#1F263F"/>
<path d="M191.765 126.274C191.965 126.274 192.127 126.112 192.127 125.912C192.127 125.713 191.965 125.551 191.765 125.551C191.566 125.551 191.404 125.713 191.404 125.912C191.404 126.112 191.566 126.274 191.765 126.274Z" fill="#1F263F"/>
<path d="M192.096 124.96L191.139 124.972" stroke="#1F263F" stroke-width="0.339688" stroke-miterlimit="10" stroke-linecap="round"/>
<path d="M195.396 125.321L194.452 125.094" stroke="#1F263F" stroke-width="0.339688" stroke-miterlimit="10" stroke-linecap="round"/>
<path d="M196.496 127.03C196.469 127.432 196.601 127.828 196.864 128.133C197.127 128.438 197.499 128.627 197.9 128.66C198.301 128.693 198.699 128.567 199.008 128.308C199.317 128.05 199.511 127.68 199.55 127.28C199.57 127.078 199.549 126.875 199.489 126.682C199.429 126.489 199.33 126.31 199.199 126.156C199.069 126.002 198.908 125.876 198.728 125.785C198.547 125.694 198.35 125.641 198.148 125.628C197.056 125.593 196.565 126.187 196.496 127.03Z" fill="#E98862"/>
<g opacity="0.15">
<path d="M193.012 128.15C193.042 128.15 193.071 128.14 193.093 128.12C193.116 128.101 193.131 128.074 193.135 128.044C193.14 128.015 193.133 127.984 193.118 127.959C193.102 127.934 193.077 127.915 193.049 127.906L192.314 127.682L192.828 126.537C192.841 126.507 192.841 126.473 192.83 126.442C192.818 126.412 192.794 126.387 192.764 126.374C192.734 126.36 192.7 126.359 192.67 126.37C192.639 126.382 192.614 126.405 192.6 126.435L192.028 127.708C192.021 127.725 192.017 127.742 192.017 127.76C192.017 127.777 192.021 127.795 192.028 127.811C192.036 127.827 192.046 127.841 192.06 127.853C192.073 127.865 192.088 127.874 192.105 127.879L192.975 128.146C192.987 128.149 193 128.151 193.012 128.15Z" fill="#1F263F"/>
</g>
<path d="M194.449 128.992C194.449 128.992 193.115 129.132 192.179 128.806C192.179 128.806 192.187 129.684 193.242 129.771C194.298 129.857 194.449 128.992 194.449 128.992Z" fill="#F8FCFF"/>
<path d="M184.431 174.616C183.957 174.536 178.611 173.623 178.611 173.623L179.493 168.461C179.493 168.461 184.825 169.371 185.297 169.451L184.431 174.616Z" fill="#E98862"/>
<path d="M175.562 179.568C175.539 179.707 175.545 179.849 175.58 179.986C175.615 180.122 175.678 180.25 175.764 180.361C175.85 180.472 175.959 180.565 176.083 180.632C176.206 180.699 176.342 180.741 176.483 180.753C176.677 180.77 176.873 180.731 177.046 180.641C177.219 180.551 177.363 180.414 177.46 180.245L180.481 174.569C180.539 174.459 180.573 174.338 180.58 174.214C180.587 174.09 180.566 173.966 180.521 173.85C180.086 172.927 179.958 171.889 180.157 170.889C180.344 170.115 180.744 169.409 181.313 168.852C181.368 168.804 181.408 168.741 181.429 168.671C181.449 168.601 181.45 168.526 181.43 168.456C181.41 168.385 181.37 168.322 181.315 168.273C181.261 168.225 181.194 168.193 181.121 168.181L178.181 167.688C178.095 167.674 178.006 167.677 177.92 167.696C177.835 167.716 177.754 167.753 177.682 167.804C177.611 167.855 177.55 167.92 177.504 167.995C177.457 168.07 177.426 168.153 177.412 168.24L175.562 179.568Z" fill="#D1D1D6"/>
<path d="M200.981 160.652C203.199 160.745 205.459 160.81 207.719 160.865L211.114 160.94L214.506 161.001L214.844 161.007C216.245 161.034 217.584 161.59 218.591 162.565C219.597 163.539 220.197 164.859 220.269 166.259C220.341 167.658 219.88 169.033 218.979 170.105C218.077 171.178 216.802 171.869 215.412 172.039L181.892 176.109L180.527 166.203L213.897 161.051L214.803 172.089L211.359 172.311L207.917 172.519C205.619 172.652 203.32 172.776 200.98 172.872L200.981 160.652Z" fill="#262626"/>
<path d="M209.436 172.446C204.809 171.773 204.349 171.648 204.196 171.609L205.557 166.551C205.541 166.547 205.522 166.542 205.497 166.536C205.876 166.619 208.228 166.978 210.19 167.264L209.436 172.446Z" fill="#E98862"/>
<path d="M215.217 176.948C215.266 177.081 215.286 177.221 215.278 177.362C215.27 177.503 215.233 177.64 215.169 177.766C215.105 177.891 215.016 178.002 214.908 178.092C214.799 178.182 214.673 178.248 214.538 178.287C214.35 178.34 214.151 178.34 213.964 178.284C213.777 178.228 213.609 178.12 213.481 177.973L209.438 172.974C209.361 172.877 209.305 172.765 209.275 172.644C209.245 172.524 209.241 172.398 209.264 172.276C209.516 171.288 209.444 170.244 209.06 169.3C208.729 168.576 208.202 167.959 207.538 167.519C207.475 167.483 207.423 167.429 207.39 167.364C207.356 167.299 207.341 167.226 207.348 167.153C207.354 167.08 207.381 167.01 207.425 166.952C207.47 166.894 207.53 166.849 207.599 166.824L210.392 165.783C210.474 165.752 210.562 165.738 210.65 165.741C210.738 165.744 210.824 165.765 210.904 165.802C210.984 165.838 211.056 165.89 211.116 165.955C211.175 166.019 211.222 166.095 211.252 166.178L215.217 176.948Z" fill="#D1D1D6"/>
<path d="M193.537 171.975C192.133 171.856 190.729 171.769 189.325 171.688C187.921 171.613 186.517 171.539 185.114 171.489L183.009 171.408L180.905 171.347C179.502 171.3 178.099 171.281 176.696 171.254L177.182 161.176C179.808 161.543 182.438 161.881 185.066 162.226C187.695 162.572 190.326 162.89 192.958 163.214L196.907 163.679L200.858 164.122C203.494 164.406 206.13 164.687 208.772 164.919L207.613 174.853C204.988 174.47 202.358 174.137 199.728 173.805L195.782 173.327L191.832 172.87C189.197 172.579 186.562 172.284 183.926 172.014C181.289 171.745 178.652 171.468 176.012 171.221C174.745 171.102 173.571 170.51 172.722 169.562C171.874 168.614 171.415 167.381 171.437 166.11C171.459 164.838 171.961 163.622 172.841 162.704C173.722 161.786 174.917 161.235 176.186 161.16L176.499 161.143C177.899 161.06 179.3 160.986 180.7 160.884L182.801 160.74L184.901 160.576C186.301 160.47 187.701 160.339 189.101 160.21C190.5 160.074 191.9 159.932 193.298 159.757L193.537 171.975Z" fill="#262626"/>
<path d="M206.077 159.122L206.815 171.519L185.494 171.269L187.103 160.293L206.077 159.122Z" fill="#262626"/>
<path d="M213.195 156.319L207.544 138.8C207.311 137.888 206.824 137.06 206.141 136.412C205.001 135.273 203.033 134.537 200.634 134.534C200.454 135.934 191.959 135.939 191.895 134.567C191.571 134.572 191.319 134.577 191.162 134.584C187.73 134.732 186.348 136.053 185.909 138.042L178.706 155.473C178.529 155.899 178.469 156.365 178.531 156.823C178.593 157.281 178.774 157.714 179.058 158.079C179.341 158.444 179.716 158.727 180.144 158.9C180.572 159.074 181.038 159.131 181.496 159.066L185.431 158.505C185.238 159.485 185.207 160.247 185.59 161.128C186.635 163.53 207.168 164.528 207.442 160.303C207.445 160.261 207.445 160.22 207.447 160.178L210.859 159.861C211.265 159.823 211.656 159.695 212.006 159.485C212.355 159.276 212.653 158.991 212.877 158.651C213.101 158.311 213.246 157.925 213.301 157.521C213.356 157.118 213.32 156.707 213.195 156.319ZM185.298 153.234L186.601 150.083C186.586 151.21 186.526 152.199 186.439 153.071L185.298 153.234ZM206.978 154.762L205.983 154.854C205.492 153.293 205.244 151.665 205.248 150.028C205.248 149.837 205.256 149.648 205.268 149.459L206.978 154.762Z" fill="#007BFF"/>
<path d="M198.984 142.916L199.866 156.055C199.876 156.21 199.855 156.365 199.803 156.511C199.75 156.657 199.669 156.791 199.563 156.905C199.457 157.018 199.328 157.109 199.186 157.17C199.044 157.232 198.89 157.264 198.735 157.264H180.384C180.104 157.264 179.834 157.16 179.625 156.972C179.417 156.784 179.286 156.526 179.257 156.247L177.9 143.108C177.883 142.95 177.9 142.791 177.95 142.64C177.999 142.489 178.079 142.35 178.185 142.232C178.292 142.114 178.422 142.02 178.567 141.956C178.712 141.891 178.868 141.858 179.027 141.858H197.854C198.141 141.858 198.418 141.967 198.628 142.164C198.838 142.36 198.965 142.629 198.984 142.916Z" fill="#D1D1D6"/>
<path d="M181.917 157.264H201.198C201.635 157.264 201.989 156.91 201.989 156.473C201.989 156.036 201.635 155.682 201.198 155.682H181.917C181.48 155.682 181.126 156.036 181.126 156.473C181.126 156.91 181.48 157.264 181.917 157.264Z" fill="#D1D1D6"/>
<path d="M188.396 151.307C189.36 151.307 190.142 150.526 190.142 149.561C190.142 148.597 189.36 147.816 188.396 147.816C187.432 147.816 186.65 148.597 186.65 149.561C186.65 150.526 187.432 151.307 188.396 151.307Z" fill="white"/>
<path d="M190.912 158.933C192.032 159.623 193.765 159.95 195.276 160.07L195.361 157.316C194.65 157.296 193.558 157.222 192.488 157.264C192.004 156.87 191.726 156.753 191.23 156.256C190.702 155.728 189.316 155.411 189.054 156.256C188.792 157.102 189.929 158.324 190.912 158.933Z" fill="#E98862"/>
<path d="M191.895 134.567C191.959 135.939 192.705 137.956 195.007 138.108C198.075 138.31 200.454 135.934 200.634 134.534H200.626C197.606 134.534 193.656 134.539 191.895 134.567Z" fill="#E98862"/>
<path d="M180.243 136.092L176.296 133.598H157.591V118.373H180.243V136.092Z" fill="#D1D1D6"/>
<path d="M160.92 125.845L166.018 123.371V124.339L161.974 126.221V126.243L166.018 128.135V129.092L160.92 126.619V125.845Z" fill="white" stroke="white" stroke-width="0.249404" stroke-miterlimit="10"/>
<path d="M167.191 129.523L169.815 121.725H170.74L168.116 129.523H167.191Z" fill="white" stroke="white" stroke-width="0.249404" stroke-miterlimit="10"/>
<path d="M176.914 126.64L171.816 129.092V128.135L175.924 126.243V126.221L171.816 124.328V123.37L176.914 125.822V126.64Z" fill="white" stroke="white" stroke-width="0.249404" stroke-miterlimit="10"/>
<path d="M37.8518 173.334L32.6509 172.716C32.8851 170.747 33.1497 168.382 33.1675 167.995C33.1675 168.02 33.1675 168.04 33.1675 168.056H38.4049C38.4039 168.213 38.4039 168.69 37.8518 173.334Z" fill="#E98862"/>
<path d="M16.9826 173.96L11.7451 173.943C11.7451 173.943 11.7629 168.535 11.7629 168.056H17.0003C17.0003 168.536 16.9826 173.96 16.9826 173.96Z" fill="#E98862"/>
<path d="M39.7839 171.523C39.3506 160.547 39.3242 149.019 39.1885 138.014C37.3871 126.144 36.4404 113.125 34.2169 101.339L34.1503 101.359L33.9555 100.03L14.9814 98.8577C14.9814 98.8577 14.4866 108.155 14.3143 111.253C13.3895 127.862 11.5125 154.555 10.3954 171.383L19.5906 172.16C21.2327 155.609 23.6612 129.244 25.1454 112.932C26.774 121.243 28.559 130.604 30.005 139.014C30.3215 149.758 30.5861 160.954 30.5574 171.68L39.7839 171.523Z" fill="#262626"/>
<path d="M23.3497 175.986C23.4905 175.985 23.6298 175.956 23.7587 175.899C23.8876 175.842 24.0035 175.759 24.0989 175.656C24.1944 175.552 24.2674 175.43 24.3135 175.297C24.3596 175.163 24.3777 175.022 24.3667 174.882C24.3516 174.687 24.2811 174.501 24.1636 174.345C24.0461 174.189 23.8865 174.07 23.7036 174.002L17.6079 171.96C17.4898 171.921 17.3646 171.908 17.241 171.921C17.1174 171.935 16.9982 171.975 16.8916 172.04C16.0535 172.621 15.051 172.918 14.0314 172.888C13.2373 172.831 12.475 172.553 11.8314 172.084C11.7749 172.038 11.7063 172.008 11.6337 171.999C11.5611 171.99 11.4875 172.002 11.4214 172.034C11.3553 172.065 11.2995 172.115 11.2605 172.176C11.2215 172.238 11.201 172.31 11.2012 172.383V175.364C11.2012 175.452 11.2186 175.539 11.2523 175.62C11.286 175.702 11.3355 175.775 11.3978 175.837C11.4601 175.899 11.5341 175.949 11.6154 175.982C11.6968 176.015 11.7839 176.032 11.8719 176.032L23.3497 175.986Z" fill="#D1D1D6"/>
<path d="M44.233 175.986C44.3738 175.985 44.513 175.956 44.6419 175.899C44.7708 175.842 44.8866 175.759 44.982 175.655C45.0774 175.552 45.1504 175.43 45.1965 175.296C45.2426 175.163 45.2607 175.022 45.2498 174.882C45.2345 174.687 45.164 174.501 45.0465 174.345C44.9291 174.189 44.7695 174.07 44.5866 174.002L38.4905 171.96C38.3724 171.921 38.2472 171.908 38.1236 171.921C38 171.935 37.8808 171.975 37.7742 172.04C36.9361 172.621 35.9336 172.918 34.914 172.888C34.12 172.831 33.3577 172.553 32.7143 172.084C32.6577 172.038 32.5891 172.008 32.5165 171.999C32.4439 171.99 32.3702 172.002 32.3041 172.034C32.2381 172.065 32.1822 172.115 32.1432 172.177C32.1042 172.238 32.0836 172.31 32.0838 172.383V175.364C32.0838 175.452 32.1011 175.539 32.1349 175.62C32.1686 175.702 32.2181 175.775 32.2804 175.837C32.3427 175.899 32.4166 175.949 32.498 175.982C32.5793 176.015 32.6665 176.032 32.7544 176.032L44.233 175.986Z" fill="#D1D1D6"/>
<path d="M43.2546 81.3351L43.3705 81.385L41.92 81.6189L43.3439 84.3374C43.3439 84.3374 48.6247 85.5732 51.0953 82.7934C51.1583 82.7225 51.1984 82.6344 51.2104 82.5404C51.2224 82.4464 51.2057 82.351 51.1626 82.2666C51.1195 82.1822 51.0519 82.1128 50.9687 82.0675C50.8855 82.0221 50.7906 82.003 50.6963 82.0125C49.2724 82.1571 46.733 82.329 45.5895 81.8781C46.0923 81.6312 46.7594 81.2528 46.6547 81.0268C46.3789 80.4338 43.9883 81.2169 43.2546 81.3351Z" fill="#E98862"/>
<path d="M102.238 35.051H38.4119V83.147H102.238V35.051Z" fill="#35C85A"/>
<path d="M58.9052 81.3351L59.0211 81.385L57.5703 81.6189L58.9944 84.3374C58.9944 84.3374 64.2751 85.5732 66.7459 82.7934C66.8087 82.7225 66.8487 82.6343 66.8606 82.5404C66.8726 82.4465 66.8559 82.3511 66.8128 82.2668C66.7697 82.1825 66.7022 82.1131 66.6191 82.0677C66.536 82.0224 66.4411 82.0031 66.3469 82.0125C64.9228 82.1571 62.3836 82.329 61.2401 81.8781C61.7429 81.6312 62.41 81.2528 62.3053 81.0268C62.0294 80.4338 59.6389 81.2169 58.9052 81.3351Z" fill="#E98862"/>
<path d="M20.8092 72.9155C20.8092 72.9155 22.8149 72.0541 22.8149 66.7849L26.8465 66.3741C26.8465 66.3741 26.0155 71.0303 27.9023 72.6841L20.8092 72.9155Z" fill="#E98862"/>
<path d="M20.7279 64.5705C20.8728 66.1811 21.6161 67.7559 22.9746 68.3836C24.4518 69.1148 26.0855 69.4735 27.7332 69.4284C32.1097 69.4284 32.0603 59.4727 30.1536 57.3834C28.247 55.2942 22.0899 56.0135 21.0898 59.1644C20.5726 60.7943 20.5903 63.0377 20.7279 64.5705Z" fill="#E98862"/>
<path d="M27.0767 63.8584C27.2763 63.8584 27.4381 63.6966 27.4381 63.497C27.4381 63.2974 27.2763 63.1356 27.0767 63.1356C26.8772 63.1356 26.7154 63.2974 26.7154 63.497C26.7154 63.6966 26.8772 63.8584 27.0767 63.8584Z" fill="#007BFF"/>
<path d="M26.3664 62.7812C26.3235 62.7814 26.2821 62.7653 26.2506 62.7361C26.2191 62.707 26.1998 62.6669 26.1966 62.6241C26.1935 62.5813 26.2067 62.5389 26.2335 62.5054C26.2604 62.4719 26.299 62.4499 26.3415 62.4438L27.3007 62.2941C27.3452 62.2872 27.3907 62.2983 27.427 62.3249C27.4634 62.3515 27.4877 62.3914 27.4946 62.4359C27.5015 62.4804 27.4905 62.5259 27.4639 62.5622C27.4373 62.5986 27.3973 62.6229 27.3528 62.6298L26.3936 62.7795C26.3846 62.7808 26.3755 62.7814 26.3664 62.7812Z" fill="#007BFF"/>
<path d="M32.4591 61.2135C32.4591 61.2135 32.1833 54.1177 24.3248 55.2106C23.7469 55.3013 23.1875 55.4851 22.6683 55.7548C22.2897 55.3928 21.8346 55.1206 21.3365 54.9583C20.8385 54.7961 20.3104 54.748 19.7912 54.8176C19.272 54.8872 18.7752 55.0727 18.3375 55.3603C17.8997 55.648 17.5323 56.0305 17.2625 56.4794C16.9926 56.9283 16.8272 57.4322 16.7785 57.9537C16.7299 58.4753 16.7991 59.0011 16.9812 59.4922C17.1633 59.9833 17.4536 60.4272 17.8305 60.7909C18.2075 61.1546 18.6614 61.4288 19.1587 61.5933C19.1587 61.6539 19.1587 61.7135 19.1627 61.7749C19.3809 66.3741 21.5604 68.5355 22.4705 68.8879C26.3088 70.3746 27.9088 68.5023 29.5583 61.4307C30.5296 61.4394 31.5 61.3667 32.4591 61.2135Z" fill="#1F263F"/>
<path d="M58.15 80.7171L44.944 84.9944L44.0162 83.1463H40.7341L38.8012 80.4652H38.7987L35.2148 75.4148C33.8855 73.3073 32.8554 72.2124 29.6955 72.0778C28.6929 72.0329 23.8071 72.0254 20.2306 72.0254C17.8264 72.0254 15.8536 72.7636 14.7138 73.9034C10.7857 77.8315 15.6067 84.5255 15.6067 89.763C15.6067 95.0005 13.2373 97.3498 13.4119 100.038C13.6863 104.266 34.2197 103.266 35.2647 100.866C36.2274 98.6567 34.5888 97.1977 34.2945 91.1522L38.5643 89.0073L39.8163 90.5461C40.0715 90.8594 40.3933 91.1119 40.7582 91.2853C41.1232 91.4587 41.5222 91.5487 41.9262 91.5487C42.2099 91.5479 42.4917 91.5033 42.7617 91.4165L59.8259 85.8897L58.15 80.7171ZM34.5414 84.942C34.5713 84.6876 34.6013 84.4357 34.6312 84.1813L35.0452 84.6901L34.5414 84.942Z" fill="#007BFF"/>
<path d="M29.9105 65.031C29.9053 65.4339 29.7417 65.8185 29.4549 66.1016C29.1682 66.3848 28.7815 66.5435 28.3785 66.5435C27.9756 66.5435 27.5888 66.3848 27.3021 66.1016C27.0154 65.8185 26.8517 65.4339 26.8466 65.031C26.8431 64.8288 26.8804 64.6281 26.9562 64.4407C27.0319 64.2532 27.1446 64.083 27.2875 63.94C27.4305 63.7971 27.6007 63.6843 27.7881 63.6086C27.9755 63.5328 28.1763 63.4955 28.3784 63.4989C29.4695 63.5525 29.9105 64.1847 29.9105 65.031Z" fill="#E98862"/>
<g opacity="0.61">
<path d="M53.9839 58.3509C58.6295 58.3509 62.3955 54.5848 62.3955 49.9392C62.3955 45.2936 58.6295 41.5276 53.9839 41.5276C49.3383 41.5276 45.5723 45.2936 45.5723 49.9392C45.5723 54.5848 49.3383 58.3509 53.9839 58.3509Z" fill="white"/>
<path d="M95.0766 72.1445H45.5723V76.4385H95.0766V72.1445Z" fill="white"/>
<path d="M95.0766 63.0181H45.5723V67.3121H95.0766V63.0181Z" fill="white"/>
<path d="M95.0769 52.3553H65.0519V56.6493H95.0769V52.3553Z" fill="white"/>
<path d="M95.0769 43.2289H65.0519V47.5229H95.0769V43.2289Z" fill="white"/>
</g>
</g>
<defs>
<clipPath id="clip0_1548_3035">
<rect width="226.723" height="180.757" fill="white"/>
</clipPath>
</defs>
</svg>
