<svg width="25" height="30" viewBox="0 0 25 30" fill="none" xmlns="http://www.w3.org/2000/svg">
<path d="M20.8138 15.4918C20.7995 13.0889 21.9001 11.2779 24.1225 9.94263C22.8795 8.181 20.999 7.21211 18.5201 7.02537C16.1731 6.84217 13.6052 8.37831 12.6649 8.37831C11.6712 8.37831 9.39897 7.08879 7.61106 7.08879C3.92128 7.14517 0 9.999 0 15.8053C0 17.5212 0.316979 19.2934 0.950937 21.1184C1.79859 23.5213 4.85441 29.4086 8.04201 29.3135C9.70882 29.2747 10.8877 28.1438 13.0567 28.1438C15.1616 28.1438 16.2514 29.3135 18.1106 29.3135C21.3266 29.2677 24.0904 23.9159 24.8953 21.506C20.5823 19.4942 20.8138 15.6151 20.8138 15.4918ZM17.0706 4.74583C18.8763 2.62483 18.7125 0.694082 18.659 0C17.0635 0.0916047 15.2186 1.07459 14.1679 2.28307C13.0104 3.57963 12.3301 5.18271 12.4762 6.99014C14.2 7.1205 15.7742 6.24321 17.0706 4.74583Z" fill="white"/>
</svg>
