<svg width="30" height="30" viewBox="0 0 30 30" fill="none" xmlns="http://www.w3.org/2000/svg">
<rect x="0.5" y="0.5" width="29" height="29" rx="14.5" fill="white" stroke="#D1D1D6"/>
<path d="M20.934 13.4967C21.1751 11.8847 19.9478 11.0182 18.2697 10.4402L18.8141 8.25665L17.4849 7.92545L16.9549 10.0515C16.6055 9.96436 16.2466 9.88224 15.89 9.80083L16.4238 7.66073L15.0954 7.32953L14.5507 9.51238C14.2615 9.44654 13.9775 9.38147 13.702 9.31291L13.7035 9.30604L11.8705 8.84831L11.5169 10.268C11.5169 10.268 12.5031 10.494 12.4823 10.5079C13.0206 10.6423 13.1179 10.9986 13.1017 11.281L12.4816 13.7686C12.5187 13.778 12.5667 13.7916 12.6198 13.8129C12.5754 13.8019 12.5283 13.7899 12.4793 13.7782L11.6101 17.2629C11.5443 17.4265 11.3773 17.6719 11.001 17.5787C11.0143 17.598 10.0349 17.3376 10.0349 17.3376L9.375 18.8591L11.1047 19.2903C11.4265 19.371 11.7419 19.4554 12.0524 19.5348L11.5024 21.7434L12.83 22.0746L13.3747 19.8895C13.7374 19.9879 14.0894 20.0788 14.434 20.1644L13.8911 22.3392L15.2204 22.6704L15.7704 20.466C18.0369 20.8949 19.7412 20.722 20.4586 18.6719C21.0366 17.0213 20.4298 16.0693 19.2374 15.4484C20.1059 15.2481 20.7596 14.6767 20.934 13.4967ZM17.8971 17.7552C17.4863 19.4058 14.7072 18.5136 13.8062 18.2898L14.5361 15.3638C15.4371 15.5887 18.3263 16.0339 17.8971 17.7552ZM18.3082 13.4728C17.9334 14.9742 15.6204 14.2114 14.8701 14.0244L15.5318 11.3706C16.2822 11.5577 18.6984 11.9068 18.3082 13.4728Z" fill="#F7931A"/>
</svg>
