<svg width="30" height="30" viewBox="0 0 30 30" fill="none" xmlns="http://www.w3.org/2000/svg">
<rect x="0.5" y="0.5" width="29" height="29" rx="14.5" fill="white" stroke="#D1D1D6"/>
<path fill-rule="evenodd" clip-rule="evenodd" d="M11.1169 13.4039L15.001 9.51981L18.8884 13.4073L21.1483 11.1473L15.001 5L8.85696 11.144L11.1169 13.4039ZM5 15.0007L7.25932 12.7414L9.51863 15.0007L7.25932 17.26L5 15.0007ZM15.001 20.4832L11.1168 16.5991L8.85361 18.8557L8.85694 18.859L15.001 25.003L21.1483 18.8557L18.8884 16.5958L15.001 20.4832ZM20.4814 15.0023L22.7407 12.743L25 15.0023L22.7407 17.2616L20.4814 15.0023ZM15.001 12.7083L17.2942 15.0015L15.001 17.298L12.7078 15.0048V14.9982L13.1105 14.5955L13.3069 14.4024L15.001 12.7083Z" fill="#F3BA2F"/>
</svg>
