<svg width="326" height="299" viewBox="0 0 326 299" fill="none" xmlns="http://www.w3.org/2000/svg">
<path d="M141.189 188.694C140.996 187.833 141.002 186.939 141.206 186.081C142.799 179.034 142.558 168.634 144.148 160.179C145.739 151.724 150.982 152.676 156.779 150.649C160.48 149.351 163.943 147.355 167.884 145.524C170.232 144.403 172.663 143.462 175.154 142.712C182.535 140.538 201.061 148.35 210.034 149.786C212.155 150.123 214.244 150.632 216.282 151.307L216.323 151.184C216.323 151.184 257.245 123.134 267.943 115.453C278.642 107.772 300.604 92.1748 300.604 92.1748L325.618 149.785C325.618 149.785 276.506 182.246 269.238 188.646C261.97 195.046 245.986 203.18 245.986 203.18L245.856 203.149C244.88 207.619 241.634 212.717 232.685 217.77L232.145 217.958C230.664 214.55 228.792 211.328 226.566 208.353C217.64 191.935 181.24 167.606 178.093 168.129C174.946 168.652 166.254 169.796 166.254 169.796C165.616 171.717 162.943 172.791 162.943 172.791H162.715C162.758 178.6 160.763 184.24 157.077 188.728C151.254 196.074 142.387 193.99 141.189 188.694Z" fill="white"/>
<path d="M141.189 188.694C142.385 193.99 151.254 196.069 157.068 188.73C160.754 184.241 162.749 178.602 162.706 172.793H162.935C162.935 172.793 165.607 171.718 166.246 169.798C166.246 169.798 174.93 168.653 178.084 168.13C181.238 167.608 217.632 191.936 226.557 208.355C228.783 211.329 230.656 214.552 232.137 217.96C233.106 220.463 233.475 222.846 232.308 224.227C228.284 229.01 223.364 227.603 219.911 223.627C219.74 223.434 219.569 223.227 219.399 223.017C215.927 218.584 207.019 207.76 207.019 207.76L199.585 203.147C201.319 204.771 202.948 206.501 204.46 208.333C206.45 211.046 214.278 219.038 217.794 224.517C218.698 225.703 219.293 227.095 219.522 228.568C219.448 229.644 219.118 230.69 218.56 231.614C218.003 232.538 217.232 233.316 216.315 233.885C215.396 234.452 214.355 234.792 213.279 234.877C212.202 234.965 211.121 234.792 210.125 234.377C210.002 234.326 209.882 234.262 209.771 234.189C206.795 232.345 192.145 219.204 189.871 217.061C189.416 216.217 188.791 215.476 188.034 214.888C187.576 214.519 187.089 214.189 186.577 213.902L186.555 213.884C182.702 211.693 178.486 212.517 174.845 215.363C170.828 218.517 172.59 216.655 170.852 218.464C170.703 217.041 170.095 215.707 169.12 214.659C165.52 210.619 160.64 210.419 156.048 212.891C152.504 214.927 149.084 217.176 145.807 219.621L132.442 220.9L132.326 220.878C132.653 218.5 132.137 216.082 130.868 214.044C127.964 209.664 123.606 210.115 121.31 210.251C120.933 210.277 120.561 210.344 120.199 210.451L120.17 210.251C118.39 209.375 116.667 208.391 115.009 207.302C112.835 205.946 110.476 204.384 108.59 203.117C106.512 201.719 105.021 200.686 105.021 200.686C105.161 183.743 106.394 166.829 108.713 150.044L111.727 151.213C116.611 153.109 125.842 156.68 127.023 157.097C127.587 157.394 128.216 157.55 128.855 157.55C129.493 157.55 130.123 157.394 130.687 157.097C132.36 156.463 152.031 146.105 156.007 145.16C159.983 144.215 167.874 145.517 167.874 145.517C163.928 147.355 160.464 149.351 156.769 150.642C150.979 152.669 145.724 151.71 144.138 160.172C142.553 168.634 142.789 179.027 141.196 186.075C140.994 186.936 140.992 187.831 141.189 188.694Z" fill="white"/>
<path d="M219.417 223.015C219.588 223.226 219.759 223.432 219.93 223.625C219.93 223.625 217.863 224.582 217.822 224.519C214.306 219.04 206.477 211.047 204.487 208.334C202.975 206.505 201.347 204.772 199.613 203.149L207.046 207.762C207.046 207.762 215.946 218.582 219.417 223.015Z" fill="white"/>
<path d="M209.792 234.189L209.387 234.782C209.235 235.58 208.898 236.33 208.406 236.974C207.912 237.619 207.275 238.139 206.546 238.494C205.509 239.145 204.348 239.574 203.137 239.755C201.926 239.934 200.691 239.861 199.51 239.538C198.451 239.026 197.429 238.438 196.452 237.783L194.889 237.613C195.678 236.883 196.377 236.06 196.968 235.163C199.189 231.418 199.112 229.098 196.662 227.148C195.741 226.277 194.608 225.664 193.377 225.368C192.143 225.072 190.855 225.105 189.64 225.464L189.38 225.305C189.512 225.086 189.627 224.857 189.722 224.621C190.306 223.453 190.626 222.17 190.655 220.864C190.684 219.559 190.424 218.262 189.893 217.07C192.165 219.204 206.809 232.345 209.792 234.189Z" fill="white"/>
<path d="M199.51 239.538C197.431 242.114 194.588 243.965 191.39 244.824C190.717 245.067 189.999 245.159 189.287 245.097C188.572 245.034 187.882 244.817 187.262 244.46L186.462 244.448C189.415 242.354 192.23 240.071 194.889 237.614L196.452 237.785C197.429 238.44 198.451 239.026 199.51 239.538Z" fill="white"/>
<path d="M196.662 227.135C199.112 229.084 199.182 231.406 196.968 235.149C196.377 236.046 195.678 236.869 194.889 237.599C192.23 240.056 189.415 242.338 186.462 244.433C185.482 245.144 184.855 245.578 184.855 245.578C175.188 251.257 170.902 252.517 167.444 250.891C166.372 250.464 165.412 249.798 164.633 248.947C163.856 248.094 163.28 247.076 162.952 245.971L162.781 245.583C166.661 243.883 170.421 241.92 174.033 239.706C174.033 239.706 186.676 229.87 189.375 225.284L189.635 225.443C190.851 225.084 192.141 225.052 193.375 225.349C194.608 225.646 195.741 226.261 196.662 227.135Z" fill="white"/>
<path d="M189.895 217.054C190.426 218.247 190.686 219.544 190.657 220.849C190.628 222.156 190.308 223.437 189.724 224.606C189.628 224.842 189.514 225.071 189.382 225.289C186.681 229.875 174.04 239.711 174.04 239.711C170.428 241.925 166.668 243.888 162.788 245.588C154.758 248.93 152.889 246.955 150.005 245.6C147.257 244.149 145.194 241.67 144.263 238.706V238.624C146.651 238.445 148.982 237.807 151.128 236.745C151.128 236.745 166.794 228.373 169.149 224.514C170.375 222.739 170.984 220.61 170.881 218.454C172.619 216.644 170.857 218.507 174.874 215.353C178.515 212.505 182.733 211.683 186.584 213.873L186.606 213.892C187.119 214.179 187.605 214.509 188.063 214.878C188.818 215.467 189.444 216.209 189.895 217.054Z" fill="white"/>
<path d="M145.816 219.617C149.097 217.172 152.52 214.926 156.067 212.888C160.659 210.415 165.539 210.615 169.138 214.656C170.114 215.703 170.722 217.037 170.871 218.461C170.973 220.615 170.365 222.745 169.138 224.521C166.784 228.378 151.117 236.752 151.117 236.752C148.972 237.814 146.641 238.451 144.253 238.631C139.713 238.781 135.181 238.146 130.858 236.752C126.145 235.53 123.894 226.711 123.894 226.711C125.699 226.417 127.457 225.884 129.121 225.125C129.971 224.744 130.712 224.155 131.274 223.412C131.837 222.669 132.203 221.797 132.339 220.875L132.456 220.897L145.816 219.617Z" fill="white"/>
<path d="M165.706 5.26779L166.815 10.6358L100.738 24.2524L118.653 111.2L113.28 112.304L112.171 106.931L94.2609 19.9898L160.333 6.37318L165.706 5.26779Z" fill="white"/>
<path d="M160.333 6.37317L94.2608 19.9898L112.171 106.931L106.798 108.041L87.7772 15.7203L159.229 1L160.333 6.37317Z" fill="white"/>
<path d="M120.214 210.45C120.576 210.342 120.948 210.275 121.325 210.25C123.621 210.12 127.971 209.662 130.884 214.042C132.153 216.081 132.668 218.498 132.341 220.876C132.205 221.799 131.839 222.67 131.276 223.413C130.714 224.157 129.973 224.746 129.122 225.127C127.459 225.886 125.701 226.419 123.896 226.713C119.886 227.387 115.716 227.023 113.884 225.221C110.809 222.185 107.502 215.209 114.684 207.841L115.026 207.299C116.684 208.387 118.407 209.371 120.187 210.248L120.214 210.45Z" fill="white"/>
<path d="M110.714 147.096L110.649 147.149C110.585 147.064 110.504 146.994 110.41 146.944C110.316 146.894 110.213 146.866 110.107 146.861C110.001 146.856 109.895 146.874 109.797 146.915C109.699 146.955 109.611 147.017 109.54 147.096C109.089 148.019 108.813 149.019 108.728 150.043C106.41 166.827 105.176 183.741 105.036 200.684C105.111 204.588 105.422 207.161 106.051 207.507C106.443 207.779 106.926 207.883 107.396 207.8L107.42 207.877C105.67 209.04 101.001 209.626 99.7314 205.934C99.4179 202.941 99.3945 199.924 99.6614 196.925C100.266 182.403 102.632 155.067 103.933 147.577C104.002 146.926 104.164 146.287 104.414 145.681C105.817 143.843 110.549 144.9 110.714 147.096Z" fill="white"/>
<path d="M103.616 147.519L103.939 147.579C102.636 155.078 100.27 182.412 99.6682 196.927H99.4973C99.4973 196.927 89.3746 192.382 84.2304 191.771C76.7728 190.891 1.00684 155.705 1.00684 155.705L29.9963 99.2393L98.9045 145.175L103.616 147.519Z" fill="white"/>
<path d="M300.597 92.1748L325.611 149.785" stroke="white" strokeWidth="0.586863" strokeLinecap="round" strokeLinejoin="round"/>
<path d="M1 155.698L29.9963 99.2393" stroke="white" strokeWidth="0.586863" strokeLinecap="round" strokeLinejoin="round"/>
<path d="M240.86 277.437C222.744 289.402 201.806 296.408 180.138 297.76C158.469 299.109 136.824 294.756 117.362 285.134C97.8997 275.512 81.2998 260.956 69.2171 242.917C57.1343 224.878 49.991 203.988 48.4992 182.328" stroke="#007BFF" strokeWidth="0.586863" strokeLinecap="round" strokeLinejoin="round"/>
<path d="M296.504 177.56C295.99 195.282 291.678 212.688 283.861 228.6C276.043 244.515 264.902 258.565 251.19 269.804" stroke="#007BFF" strokeWidth="0.586863" strokeLinecap="round" strokeLinejoin="round"/>
<path d="M227.003 257.655C213.48 266.587 197.972 272.064 181.839 273.605C165.706 275.148 149.442 272.707 134.472 266.498C119.502 260.288 106.284 250.501 95.9789 237.994C85.6733 225.486 78.5944 210.639 75.3633 194.759" stroke="#007BFF" strokeWidth="0.586863" strokeLinecap="round" strokeLinejoin="round"/>
<path d="M269.705 193.477C265.384 216.282 253.185 236.844 235.241 251.566" stroke="#007BFF" strokeWidth="0.586863" strokeLinecap="round" strokeLinejoin="round"/>
<path d="M254.496 119.902C252.245 116.602 249.799 113.443 247.173 110.443" stroke="#007BFF" strokeWidth="0.586863" strokeLinecap="round" strokeLinejoin="round"/>
<path d="M83.9553 131.024C88.5236 121.848 94.4838 113.434 101.624 106.08" stroke="#007BFF" strokeWidth="0.586863" strokeLinecap="round" strokeLinejoin="round"/>
<path d="M272.859 100.842C269.421 96.1186 265.665 91.6547 261.622 87.4785" stroke="#007BFF" strokeWidth="0.586863" strokeLinecap="round" strokeLinejoin="round"/>
<path d="M62.6403 115.687C70.5835 100.741 81.4855 87.5684 94.6828 76.971" stroke="#007BFF" strokeWidth="0.586863" strokeLinecap="round" strokeLinejoin="round"/>
<path d="M216.328 151.182C216.328 151.182 257.25 123.132 267.948 115.451C278.647 107.77 300.604 92.1748 300.604 92.1748" stroke="#007BFF" strokeWidth="0.586863" strokeLinecap="round" strokeLinejoin="round"/>
<path d="M245.982 203.18C245.982 203.18 261.965 195.041 269.235 188.646C276.504 182.251 325.615 149.785 325.615 149.785" stroke="#007BFF" strokeWidth="0.586863" strokeLinecap="round" strokeLinejoin="round"/>
<path d="M1 155.698C1 155.698 76.7677 190.893 84.2252 191.764C89.3695 192.375 99.4922 196.92 99.4922 196.92" stroke="#007BFF" strokeWidth="0.586863" strokeLinecap="round" strokeLinejoin="round"/>
<path d="M103.62 147.518L98.9045 145.175L29.9963 99.2393" stroke="#007BFF" strokeWidth="0.586863" strokeLinecap="round" strokeLinejoin="round"/>
<path d="M111.8 151.059C111.7 149.689 111.307 148.355 110.649 147.149C110.585 147.063 110.504 146.994 110.41 146.944C110.316 146.894 110.213 146.866 110.107 146.861C110.001 146.856 109.895 146.874 109.797 146.915C109.699 146.955 109.611 147.017 109.54 147.096C109.089 148.019 108.813 149.019 108.728 150.043C106.41 166.827 105.176 183.741 105.036 200.684C105.111 204.588 105.422 207.161 106.051 207.507C106.443 207.779 106.926 207.883 107.396 207.8C108.933 207.402 108.436 203.614 108.436 203.614" stroke="#007BFF" strokeWidth="0.586863" strokeLinecap="round" strokeLinejoin="round"/>
<path d="M110.714 147.096C110.543 144.9 105.817 143.85 104.425 145.681C104.174 146.287 104.012 146.926 103.943 147.577C102.639 155.076 100.273 182.41 99.6716 196.925C99.4047 199.924 99.4281 202.941 99.7417 205.934C101.004 209.626 105.673 209.04 107.43 207.877" stroke="#007BFF" strokeWidth="0.586863" strokeLinecap="round" strokeLinejoin="round"/>
<path d="M108.728 150.043L111.742 151.211C116.627 153.108 125.857 156.678 127.038 157.095C127.603 157.393 128.232 157.548 128.87 157.548C129.509 157.548 130.138 157.393 130.703 157.095C132.375 156.462 152.047 146.103 156.022 145.158C159.998 144.213 167.89 145.515 167.89 145.515" stroke="#007BFF" strokeWidth="0.586863" strokeLinecap="round" strokeLinejoin="round"/>
<path d="M105.036 200.684C105.036 200.684 106.528 201.717 108.605 203.115C110.485 204.383 112.851 205.944 115.024 207.301C116.682 208.389 118.406 209.373 120.185 210.25" stroke="#007BFF" strokeWidth="0.586863" strokeLinecap="round" strokeLinejoin="round"/>
<path d="M245.395 191.981C245.395 194.46 246.879 198.453 245.853 203.149C244.877 207.619 241.631 212.717 232.682 217.772" stroke="#007BFF" strokeWidth="0.586863" strokeLinecap="round" strokeLinejoin="round"/>
<path d="M224.367 155.158C221.872 153.494 219.151 152.195 216.287 151.305C214.249 150.63 212.16 150.123 210.039 149.785C201.066 148.351 182.533 140.537 175.159 142.71C172.668 143.461 170.237 144.401 167.89 145.522C163.943 147.36 160.48 149.356 156.784 150.648C150.994 152.674 145.739 151.715 144.154 160.177C142.568 168.64 142.804 179.032 141.212 186.08C141.007 186.937 141.001 187.831 141.195 188.692C142.39 193.988 151.259 196.067 157.073 188.728C160.759 184.24 162.755 178.6 162.711 172.791C162.699 171.153 162.514 169.521 162.159 167.922" stroke="#007BFF" strokeWidth="0.586863" strokeLinecap="round" strokeLinejoin="round"/>
<path d="M162.94 172.791C162.94 172.791 165.612 171.717 166.251 169.796C166.251 169.796 174.935 168.652 178.089 168.129C181.243 167.606 217.637 191.935 226.562 208.353" stroke="#007BFF" strokeWidth="0.586863" strokeLinecap="round" strokeLinejoin="round"/>
<path d="M226.562 208.353C228.788 211.328 230.661 214.55 232.142 217.958C233.111 220.461 233.48 222.845 232.313 224.225C228.289 229.009 223.369 227.601 219.916 223.625C219.745 223.432 219.574 223.226 219.404 223.015C215.932 218.582 207.024 207.759 207.024 207.759L199.59 203.146" stroke="#007BFF" strokeWidth="0.586863" strokeLinecap="round" strokeLinejoin="round"/>
<path d="M186.597 187.39C186.749 188.972 187.146 190.52 187.773 191.981C188.26 192.545 194.754 198.4 199.604 203.149C201.338 204.772 202.966 206.503 204.478 208.334C206.469 211.047 214.297 219.04 217.813 224.519C218.717 225.705 219.311 227.097 219.54 228.57C219.467 229.646 219.137 230.692 218.578 231.616C218.021 232.54 217.251 233.318 216.333 233.886C215.414 234.454 214.374 234.794 213.298 234.879C212.221 234.966 211.14 234.794 210.144 234.378C210.021 234.327 209.901 234.264 209.79 234.191C206.814 232.347 192.164 219.205 189.89 217.063L189.879 217.051" stroke="#007BFF" strokeWidth="0.586863" strokeLinecap="round" strokeLinejoin="round"/>
<path d="M209.387 234.782C209.235 235.58 208.898 236.33 208.406 236.974C207.912 237.619 207.275 238.139 206.546 238.494C205.509 239.145 204.348 239.574 203.137 239.755C201.926 239.934 200.691 239.861 199.51 239.538C198.451 239.026 197.429 238.438 196.452 237.783" stroke="#007BFF" strokeWidth="0.586863" strokeLinecap="round" strokeLinejoin="round"/>
<path d="M199.51 239.538C197.431 242.114 194.588 243.965 191.39 244.824C190.717 245.067 189.999 245.159 189.287 245.097C188.572 245.034 187.882 244.817 187.262 244.46" stroke="#007BFF" strokeWidth="0.586863" strokeLinecap="round" strokeLinejoin="round"/>
<path d="M178.089 168.129C178.089 168.129 180.744 165.498 180.744 164.001" stroke="#007BFF" strokeWidth="0.586863" strokeLinecap="round" strokeLinejoin="round"/>
<path d="M166.251 169.796C166.487 168.563 166.487 167.295 166.251 166.061" stroke="#007BFF" strokeWidth="0.586863" strokeLinecap="round" strokeLinejoin="round"/>
<path d="M141.054 188.147C141.053 188.34 141.1 188.528 141.189 188.699C142.252 190.848 149.704 190.154 152.095 186.573C154.671 182.704 151.524 177.56 151.524 177.56" stroke="#007BFF" strokeWidth="0.586863" strokeLinecap="round" strokeLinejoin="round"/>
<path d="M142.64 176.162C142.64 176.162 144.553 176.015 147.082 175.721" stroke="#007BFF" strokeWidth="0.586863" strokeLinecap="round" strokeLinejoin="round"/>
<path d="M225.711 224.519C227.459 224.003 229.065 223.091 230.403 221.852" stroke="#007BFF" strokeWidth="0.586863" strokeLinecap="round" strokeLinejoin="round"/>
<path d="M219.921 223.625C219.921 223.625 217.854 224.582 217.813 224.519" stroke="#007BFF" strokeWidth="0.586863" strokeLinecap="round" strokeLinejoin="round"/>
<path d="M116.14 212.612C117.373 211.68 118.749 210.952 120.214 210.458C120.576 210.35 120.948 210.284 121.325 210.258C123.621 210.128 127.971 209.67 130.884 214.051C132.153 216.089 132.668 218.507 132.341 220.885C132.205 221.807 131.839 222.679 131.276 223.422C130.714 224.165 129.973 224.755 129.122 225.136C127.459 225.894 125.701 226.427 123.896 226.721C119.886 227.396 115.716 227.032 113.884 225.23C110.809 222.194 107.502 215.218 114.684 207.849" stroke="#007BFF" strokeWidth="0.586863" strokeLinecap="round" strokeLinejoin="round"/>
<path d="M145.816 219.617C144.459 220.605 143.332 221.444 142.633 221.961" stroke="#007BFF" strokeWidth="0.586863" strokeLinecap="round" strokeLinejoin="round"/>
<path d="M123.896 226.714C123.896 226.714 126.146 235.533 130.86 236.755C135.183 238.149 139.715 238.785 144.254 238.634C146.642 238.455 148.973 237.818 151.119 236.755C151.119 236.755 166.786 228.383 169.14 224.524C170.367 222.749 170.975 220.618 170.873 218.464C170.724 217.041 170.116 215.707 169.14 214.659C165.54 210.619 160.661 210.419 156.069 212.891C152.524 214.927 149.104 217.176 145.828 219.621" stroke="#007BFF" strokeWidth="0.586863" strokeLinecap="round" strokeLinejoin="round"/>
<path d="M145.828 219.621H145.823L132.457 220.9" stroke="#007BFF" strokeWidth="0.586863" strokeLinecap="round" strokeLinejoin="round"/>
<path d="M156.386 218.917C155.273 220.232 154.668 221.901 154.678 223.625C154.761 224.35 155.02 225.043 155.434 225.645C155.848 226.246 156.403 226.736 157.051 227.073C157.699 227.41 158.419 227.582 159.149 227.575C159.879 227.568 160.596 227.381 161.237 227.032C164.273 225.353 169.135 221.953 167.797 218.917" stroke="#007BFF" strokeWidth="0.586863" strokeLinecap="round" strokeLinejoin="round"/>
<path d="M158.471 217.054C159.532 216.113 160.825 215.474 162.217 215.204C163.196 215.162 164.155 215.491 164.901 216.127" stroke="#007BFF" strokeWidth="0.586863" strokeLinecap="round" strokeLinejoin="round"/>
<path d="M186.575 213.884C182.723 211.693 178.506 212.517 174.865 215.363C170.849 218.517 172.61 216.655 170.873 218.464C170.837 218.5 170.802 218.541 170.761 218.582" stroke="#007BFF" strokeWidth="0.586863" strokeLinecap="round" strokeLinejoin="round"/>
<path d="M144.261 238.716C145.192 241.681 147.256 244.16 150.003 245.61C152.887 246.967 154.765 248.94 162.786 245.598C166.666 243.898 170.427 241.935 174.038 239.721C174.038 239.721 186.681 229.885 189.381 225.3C189.512 225.081 189.627 224.852 189.722 224.616C190.306 223.448 190.626 222.166 190.655 220.859C190.684 219.554 190.424 218.257 189.893 217.065C189.439 216.221 188.813 215.479 188.056 214.892C187.599 214.523 187.112 214.193 186.599 213.906" stroke="#007BFF" strokeWidth="0.586863" strokeLinecap="round" strokeLinejoin="round"/>
<path d="M176.198 221.247C175.33 222.735 175.019 224.483 175.323 226.179C175.528 226.88 175.902 227.519 176.411 228.04C176.922 228.563 177.553 228.951 178.248 229.173C178.942 229.393 179.681 229.441 180.399 229.311C181.117 229.18 181.791 228.875 182.364 228.423C185.077 226.251 189.287 222.076 187.455 219.31" stroke="#007BFF" strokeWidth="0.586863" strokeLinecap="round" strokeLinejoin="round"/>
<path d="M177.935 219.052C178.82 217.946 179.987 217.099 181.311 216.597C182.27 216.388 183.273 216.55 184.118 217.049" stroke="#007BFF" strokeWidth="0.586863" strokeLinecap="round" strokeLinejoin="round"/>
<path d="M162.952 245.986C163.28 247.091 163.856 248.11 164.633 248.96C165.412 249.813 166.372 250.477 167.444 250.906C170.902 252.533 175.188 251.27 184.855 245.593C184.855 245.593 185.482 245.159 186.462 244.448C189.415 242.354 192.23 240.071 194.889 237.614C195.678 236.885 196.377 236.061 196.968 235.164C199.189 231.419 199.112 229.099 196.662 227.15C195.741 226.279 194.608 225.665 193.377 225.37C192.143 225.074 190.855 225.107 189.64 225.465" stroke="#007BFF" strokeWidth="0.586863" strokeLinecap="round" strokeLinejoin="round"/>
<path d="M187.009 231.165C186.338 232.315 186.099 233.666 186.334 234.976C186.491 235.518 186.782 236.013 187.175 236.418C187.57 236.823 188.058 237.124 188.596 237.297C189.134 237.467 189.707 237.505 190.262 237.402C190.817 237.302 191.34 237.064 191.783 236.714C193.879 235.034 197.139 231.805 195.712 229.661" stroke="#007BFF" strokeWidth="0.586863" strokeLinecap="round" strokeLinejoin="round"/>
<path d="M188.357 229.463C189.044 228.607 189.949 227.951 190.976 227.565C191.718 227.403 192.492 227.529 193.143 227.919" stroke="#007BFF" strokeWidth="0.586863" strokeLinecap="round" strokeLinejoin="round"/>
<path d="M180.744 206.445L182.711 210.197L186.575 213.884L186.597 213.902" stroke="#007BFF" strokeWidth="0.586863" strokeLinecap="round" strokeLinejoin="round"/>
<path d="M129.122 225.129C127.416 224.346 125.86 223.272 124.525 221.953C123.617 220.77 122.989 219.4 122.687 217.941C122.622 217.611 122.473 217.304 122.255 217.049C122.036 216.795 121.754 216.602 121.438 216.489C121.122 216.375 120.782 216.347 120.451 216.405C120.12 216.463 119.81 216.607 119.551 216.82C118.729 217.429 118.154 218.312 117.93 219.31C117.671 220.456 117.805 221.655 118.31 222.715C118.814 223.776 119.661 224.637 120.713 225.158" stroke="#007BFF" strokeWidth="0.586863" strokeLinecap="round" strokeLinejoin="round"/>
<path d="M179.306 104.3L119.757 116.567L118.653 111.2L100.738 24.2524L166.815 10.6358L172.183 9.53215L188.812 90.2134" fill="white"/>
<path d="M179.306 104.3L119.757 116.567L118.653 111.2L100.738 24.2524L166.815 10.6358L172.183 9.53215L188.812 90.2134" stroke="#007BFF" strokeWidth="0.586863" strokeLinecap="round" strokeLinejoin="round"/>
<path d="M118.653 111.2L113.28 112.304L112.171 106.931L94.2609 19.9898L160.333 6.37318L165.706 5.26779L166.815 10.6358V10.641" stroke="#007BFF" strokeWidth="0.586863" strokeLinecap="round" strokeLinejoin="round"/>
<path d="M112.171 106.931L106.798 108.041L87.7772 15.7203L159.229 1L160.333 6.37317" stroke="#007BFF" strokeWidth="0.586863" strokeLinecap="round" strokeLinejoin="round"/>
<path d="M114.636 34.1941L163.35 24.1584" stroke="#007BFF" strokeWidth="0.586863" strokeLinecap="round" strokeLinejoin="round"/>
<path d="M119.533 44.3887L168.248 34.3463" stroke="#007BFF" strokeWidth="0.586863" strokeLinecap="round" strokeLinejoin="round"/>
<path d="M115.27 50.8654L169.357 39.7193" stroke="#007BFF" strokeWidth="0.586863" strokeLinecap="round" strokeLinejoin="round"/>
<path d="M116.374 56.2369L170.461 45.0925" stroke="#007BFF" strokeWidth="0.586863" strokeLinecap="round" strokeLinejoin="round"/>
<path d="M117.484 61.6101L155.453 53.7835" stroke="#007BFF" strokeWidth="0.586863" strokeLinecap="round" strokeLinejoin="round"/>
<path d="M123.961 65.8744L172.675 55.8388" stroke="#007BFF" strokeWidth="0.586863" strokeLinecap="round" strokeLinejoin="round"/>
<path d="M119.698 72.3513L173.786 61.212" stroke="#007BFF" strokeWidth="0.586863" strokeLinecap="round" strokeLinejoin="round"/>
<path d="M120.802 77.7228L174.889 66.5783" stroke="#007BFF" strokeWidth="0.586863" strokeLinecap="round" strokeLinejoin="round"/>
<path d="M127.279 81.9922L176 71.9515" stroke="#007BFF" strokeWidth="0.586863" strokeLinecap="round" strokeLinejoin="round"/>
<path d="M123.016 88.4693L177.103 77.3248" stroke="#007BFF" strokeWidth="0.586863" strokeLinecap="round" strokeLinejoin="round"/>
<path d="M124.125 93.8423L178.212 82.6978" stroke="#007BFF" strokeWidth="0.586863" strokeLinecap="round" strokeLinejoin="round"/>
<path d="M141.394 104.283L146.909 103.15L153.461 101.799L167.073 98.9916L169.658 98.4569L173.997 97.565" stroke="#007BFF" strokeWidth="0.586863" strokeLinecap="round" strokeLinejoin="round"/>
<path d="M157.434 95.9967C157.263 96.6203 156.205 100.543 157.663 100.584C159.236 100.63 162.824 91.582 162.824 91.582C162.824 91.582 161.068 98.9284 163.193 99.0805C165.318 99.2325 165.009 93.8542 166.853 93.3553C168.149 93.0017 167.075 96.8424 167.075 98.9933C167.075 99.9159 167.275 100.531 167.939 100.36C168.766 100.155 169.265 99.3743 169.66 98.4569C170.305 96.9192 170.674 95.004 171.826 94.717" stroke="#007BFF" strokeWidth="0.586863" strokeLinecap="round" strokeLinejoin="round"/>
<path d="M150.6 98.6395C151.351 100.466 152.479 101.886 153.429 101.664C155.59 101.141 157.2 96.6611 157.428 95.9965C157.433 95.9768 157.438 95.9574 157.446 95.9384V95.9215" stroke="#007BFF" strokeWidth="0.586863" strokeLinecap="round" strokeLinejoin="round"/>
<path d="M150.6 98.6397C152.342 95.3508 153.306 91.4931 151.222 92.0278C149.199 92.5506 149.522 96.0086 150.6 98.6397Z" stroke="#007BFF" strokeWidth="0.586863" strokeLinecap="round" strokeLinejoin="round"/>
<path d="M146.868 102.955C148.037 102.639 149.481 100.76 150.603 98.6397" stroke="#007BFF" strokeWidth="0.586863" strokeLinecap="round" strokeLinejoin="round"/>
<path d="M138.025 97.888L135.324 101.992L132.623 106.09" stroke="#007BFF" strokeWidth="0.586863" strokeLinecap="round" strokeLinejoin="round"/>
<path d="M131.219 99.2906L135.324 101.992L139.423 104.688" stroke="#007BFF" strokeWidth="0.586863" strokeLinecap="round" strokeLinejoin="round"/>
<path d="M263.185 65.9236C263.185 96.5106 239.633 121.28 210.611 121.28C181.589 121.28 158.036 96.5106 158.036 65.9236C158.036 35.3367 181.589 10.567 210.611 10.567C239.633 10.567 263.185 35.3367 263.185 65.9236Z" fill="white" stroke="#007BFF" strokeWidth="0.584313"/>
<path d="M252.055 65.9236C252.055 89.8494 233.488 109.223 210.611 109.223C187.733 109.223 169.166 89.8494 169.166 65.9236C169.166 41.9979 187.733 22.6242 210.611 22.6242C233.488 22.6242 252.055 41.9979 252.055 65.9236Z" fill="white" stroke="#007BFF" strokeWidth="0.584313"/>
<path d="M190.414 84.6217C191.038 86.2637 191.953 87.7983 193.119 89.163C195.517 92.0514 198.879 94.1252 202.681 95.0618L201.627 100.974C201.569 101.305 201.58 101.644 201.662 101.972C201.745 102.299 201.896 102.608 202.107 102.881C202.318 103.155 202.585 103.387 202.894 103.564C203.202 103.742 203.545 103.861 203.902 103.916C204.261 103.971 204.627 103.96 204.98 103.884C205.334 103.807 205.667 103.667 205.963 103.472C206.258 103.276 206.508 103.028 206.701 102.743C206.892 102.458 207.021 102.14 207.08 101.809L208.146 95.8232C209.736 95.8543 211.323 95.6925 212.867 95.3418C215.245 94.8147 217.484 93.8423 219.441 92.4845C221.376 91.131 223.023 89.4578 224.3 87.5494C225.64 85.5474 226.533 83.317 226.927 80.9899C227.545 77.6828 227.215 74.2831 225.966 71.132C224.718 67.9762 221.905 65.2046 217.53 62.8169L214.349 61.0343L216.577 48.5346C216.984 48.8186 217.357 49.1425 217.69 49.5005C218.505 50.408 218.965 51.5436 218.995 52.7234C219.025 53.1675 219.217 53.589 219.54 53.9185C219.862 54.2481 220.297 54.4659 220.771 54.5362L228.512 55.7196C228.807 55.7656 229.108 55.7537 229.399 55.6845C229.688 55.6154 229.958 55.4906 230.191 55.3182C230.425 55.1458 230.618 54.9299 230.755 54.6843C230.893 54.4386 230.973 54.1689 230.991 53.8926C231.077 52.3143 230.936 50.7323 230.572 49.1884C230.083 47.0537 229.157 45.0256 227.843 43.2139C226.542 41.4421 224.848 39.9461 222.876 38.8248C221.548 38.0633 220.118 37.4673 218.622 37.0523L219.556 31.801C219.615 31.4694 219.603 31.1302 219.522 30.8028C219.439 30.4754 219.288 30.1663 219.076 29.8931C218.865 29.6198 218.597 29.3879 218.289 29.2104C217.981 29.0329 217.638 28.9133 217.279 28.8586C216.921 28.8039 216.555 28.8149 216.201 28.8913C215.848 28.9676 215.514 29.1076 215.219 29.3034C214.623 29.6988 214.222 30.2972 214.102 30.9671L213.165 36.2314C211.66 36.1879 210.154 36.3099 208.679 36.595C206.372 37.035 204.192 37.9182 202.277 39.1873C200.271 40.4559 198.563 42.0853 197.252 43.9784C195.876 45.9662 194.962 48.1977 194.569 50.5309C193.821 54.0593 194.394 57.7186 196.195 60.9045C198.109 64.0751 200.951 66.6801 204.395 68.4187L207.169 69.876L204.657 83.9762C203.615 83.5438 202.785 82.7674 202.329 81.7986C201.945 80.9783 201.669 80.1181 201.507 79.2365C201.391 78.6 201.065 78.0127 200.572 77.5562C200.08 77.0997 199.446 76.7967 198.758 76.6895L196.438 76.336L193.167 75.8324C192.682 75.759 192.185 75.7855 191.712 75.9102C191.238 76.0349 190.801 76.2545 190.43 76.5535C190.058 76.8525 189.763 77.2235 189.564 77.6403C189.365 78.057 189.269 78.5091 189.279 78.9645C189.302 80.3663 189.51 81.7603 189.9 83.1149C190.05 83.6316 190.222 84.1333 190.414 84.6217Z" stroke="#007BFF" strokeWidth="0.586863" strokeLinecap="round" strokeLinejoin="round"/>
<path d="M207.275 55.767C206.907 54.6857 206.809 53.5305 206.988 52.4021C207.223 50.87 208.009 49.4769 209.195 48.4839C209.861 47.9077 210.671 47.524 211.538 47.374L209.707 58.5038C208.632 57.8675 207.783 56.9108 207.275 55.767Z" stroke="#007BFF" strokeWidth="0.586863" strokeLinecap="round" strokeLinejoin="round"/>
<path d="M212.386 83.6881C211.829 84.0281 211.232 84.292 210.611 84.4732L212.53 72.416C213.361 73.0629 214.05 73.8856 214.551 74.8295C215.203 76.2052 215.405 77.7639 215.126 79.2692C215.029 80.175 214.73 81.0452 214.255 81.8117C213.78 82.5784 213.14 83.2205 212.386 83.6881Z" stroke="#007BFF" strokeWidth="0.586863" strokeLinecap="round" strokeLinejoin="round"/>
</svg>
