<svg width="174" height="212" viewBox="0 0 174 212" fill="none" xmlns="http://www.w3.org/2000/svg">
<path d="M163.246 3.61323L6.12158 8.62793L12.476 207.731L169.601 202.716L163.246 3.61323Z" fill="#1F263F" fill-opacity="0.5"/>
<path opacity="0.58" d="M163.246 3.61323L6.12158 8.62793L12.476 207.731L169.601 202.716L163.246 3.61323Z" fill="#0D0D0E"/>
<path d="M157.499 0.144215L1.09583 13.0469L17.4516 211.308L173.855 198.405L157.499 0.144215Z" fill="#121213"/>
<path d="M157.376 0.290342L173.71 198.282L17.5748 211.162L1.24151 13.1705L157.377 0.290342M157.623 -0.000976562L0.950195 12.9237L17.3278 211.453L174 198.529L157.623 -0.000976562Z" fill="#F2F2F7"/>
<path d="M146.86 14.1001L75.4728 19.9893L75.8986 25.1512L147.286 19.2621L146.86 14.1001Z" fill="#1F263F" fill-opacity="0.5"/>
<path d="M148.072 28.1518L76.6578 34.0254L76.68 34.2946L148.094 28.421L148.072 28.1518Z" fill="#F2F2F7"/>
<path d="M148.854 37.6313L77.4398 43.5049L77.462 43.7741L148.876 37.9005L148.854 37.6313Z" fill="#F2F2F7"/>
<path d="M149.636 47.1117L78.2219 52.9854L78.2441 53.2545L149.659 47.3809L149.636 47.1117Z" fill="#F2F2F7"/>
<path d="M150.418 56.5903L79.0039 62.4639L79.026 62.733L150.441 56.8594L150.418 56.5903Z" fill="#F2F2F7"/>
<path d="M111.86 69.3103L79.7865 71.9482L79.8086 72.2174L111.882 69.5795L111.86 69.3103Z" fill="#F2F2F7"/>
<path d="M152.39 81.1321L19.408 92.1025L19.8338 97.2645L152.816 86.294L152.39 81.1321Z" fill="#1F263F" fill-opacity="0.5"/>
<path d="M87.8837 156.676L33.603 161.141L33.6252 161.41L87.9058 156.945L87.8837 156.676Z" fill="#F2F2F7"/>
<path d="M88.8045 167.831L34.5238 172.296L34.5459 172.565L88.8266 168.101L88.8045 167.831Z" fill="#F2F2F7"/>
<path d="M89.7246 178.989L35.444 183.453L35.4661 183.722L89.7468 179.258L89.7246 178.989Z" fill="#F2F2F7"/>
<path d="M90.6449 190.145L36.3643 194.609L36.3864 194.879L90.6671 190.414L90.6449 190.145Z" fill="#F2F2F7"/>
<path d="M27.9511 163.793C29.5279 163.793 30.8062 162.515 30.8062 160.938C30.8062 159.361 29.5279 158.083 27.9511 158.083C26.3742 158.083 25.0959 159.361 25.0959 160.938C25.0959 162.515 26.3742 163.793 27.9511 163.793Z" fill="#1F263F" fill-opacity="0.5"/>
<path d="M30.7725 197.994C32.3494 197.994 33.6276 196.716 33.6276 195.139C33.6276 193.562 32.3494 192.284 30.7725 192.284C29.1956 192.284 27.9174 193.562 27.9174 195.139C27.9174 196.716 29.1956 197.994 30.7725 197.994Z" fill="#1F263F" fill-opacity="0.5"/>
<path d="M29.8526 186.842C31.4294 186.842 32.7077 185.564 32.7077 183.987C32.7077 182.41 31.4294 181.132 29.8526 181.132C28.2757 181.132 26.9974 182.41 26.9974 183.987C26.9974 185.564 28.2757 186.842 29.8526 186.842Z" fill="#1F263F" fill-opacity="0.5"/>
<path d="M28.9018 175.318C30.4786 175.318 31.7569 174.039 31.7569 172.463C31.7569 170.886 30.4786 169.607 28.9018 169.607C27.3249 169.607 26.0466 170.886 26.0466 172.463C26.0466 174.039 27.3249 175.318 28.9018 175.318Z" fill="#1F263F" fill-opacity="0.5"/>
<path d="M158.197 150.874L103.916 155.339L103.938 155.608L158.219 151.144L158.197 150.874Z" fill="#F2F2F7"/>
<path d="M159.117 162.031L104.837 166.495L104.859 166.764L159.14 162.3L159.117 162.031Z" fill="#F2F2F7"/>
<path d="M160.037 173.187L105.757 177.651L105.779 177.921L160.06 173.456L160.037 173.187Z" fill="#F2F2F7"/>
<path d="M160.958 184.344L106.677 188.809L106.7 189.078L160.98 184.613L160.958 184.344Z" fill="#F2F2F7"/>
<path d="M98.2383 157.995C99.8152 157.995 101.093 156.717 101.093 155.14C101.093 153.563 99.8152 152.285 98.2383 152.285C96.6615 152.285 95.3832 153.563 95.3832 155.14C95.3832 156.717 96.6615 157.995 98.2383 157.995Z" fill="#1F263F" fill-opacity="0.5"/>
<path d="M101.06 192.197C102.636 192.197 103.915 190.918 103.915 189.341C103.915 187.765 102.636 186.486 101.06 186.486C99.4828 186.486 98.2045 187.765 98.2045 189.341C98.2045 190.918 99.4828 192.197 101.06 192.197Z" fill="#1F263F" fill-opacity="0.5"/>
<path d="M100.14 181.044C101.717 181.044 102.995 179.766 102.995 178.189C102.995 176.612 101.717 175.334 100.14 175.334C98.563 175.334 97.2847 176.612 97.2847 178.189C97.2847 179.766 98.563 181.044 100.14 181.044Z" fill="#1F263F" fill-opacity="0.5"/>
<path d="M99.1891 169.52C100.766 169.52 102.044 168.242 102.044 166.665C102.044 165.088 100.766 163.81 99.1891 163.81C97.6123 163.81 96.334 165.088 96.334 166.665C96.334 168.242 97.6123 169.52 99.1891 169.52Z" fill="#1F263F" fill-opacity="0.5"/>
<path d="M42.9141 51.054C48.1045 51.054 52.3121 46.8463 52.3121 41.6559C52.3121 36.4655 48.1045 32.2578 42.9141 32.2578C37.7237 32.2578 33.516 36.4655 33.516 41.6559C33.516 46.8463 37.7237 51.054 42.9141 51.054Z" fill="#007BFF"/>
<path d="M66.4529 64.8456C64.1452 68.284 61.0926 71.1584 57.5218 73.2554C53.951 75.3524 49.9537 76.6181 45.8267 76.9586C41.6997 77.2991 37.549 76.7055 33.6828 75.222C29.8166 73.7385 26.3342 71.4032 23.4943 68.3895C25.7297 64.8605 28.7532 61.8981 32.327 59.7352C35.9009 57.5724 39.9278 56.2679 44.091 55.9245C48.2543 55.581 52.4405 56.2079 56.3205 57.7559C60.2005 59.3038 63.6686 61.7307 66.4521 64.8456H66.4529Z" fill="#007BFF"/>
<path d="M43.5912 22.1714C50.636 22.179 57.4052 24.9091 62.4841 29.7912C67.5629 34.6732 70.5583 41.3293 70.8441 48.3683C71.13 55.4073 68.6842 62.2843 64.0179 67.5621C59.3517 72.8399 52.8261 76.11 45.8052 76.6888C45.0492 76.7512 44.2838 76.7827 43.5294 76.7827C36.4846 76.7751 29.7154 74.045 24.6366 69.1629C19.5578 64.2809 16.5624 57.6248 16.2766 50.5858C15.9907 43.5468 18.4365 36.6698 23.1028 31.392C27.769 26.1142 34.2945 22.8441 41.3155 22.2653C42.0715 22.2029 42.8364 22.1714 43.5915 22.1714M43.5915 21.9014C42.8318 21.9014 42.0645 21.9327 41.2939 21.9961C37.6849 22.2936 34.1698 23.299 30.9494 24.955C27.729 26.611 24.8663 28.8851 22.5248 31.6474C20.1833 34.4098 18.4088 37.6063 17.3027 41.0545C16.1966 44.5026 15.7805 48.1349 16.0782 51.7439C16.6467 58.6359 19.7839 65.0627 24.8681 69.7504C29.9522 74.4381 36.6121 77.0444 43.5275 77.0527C44.2875 77.0527 45.0534 77.021 45.8254 76.9577C49.4343 76.66 52.9492 75.6545 56.1694 73.9984C59.3896 72.3423 62.2521 70.0682 64.5935 67.3059C66.9348 64.5435 68.7092 61.3471 69.8152 57.899C70.9212 54.4509 71.3372 50.8188 71.0395 47.2099C70.471 40.3179 67.3337 33.891 62.2495 29.2034C57.1653 24.5157 50.5053 21.9095 43.5899 21.9014H43.5915Z" fill="#F2F2F7"/>
<path d="M153.715 96.5389L20.6812 107.48L20.7033 107.75L153.737 96.8081L153.715 96.5389Z" fill="#F2F2F7"/>
<path d="M154.439 105.974L21.4557 116.926L21.4778 117.195L154.461 106.243L154.439 105.974Z" fill="#F2F2F7"/>
<path d="M155.221 115.45L22.2377 126.402L22.2598 126.671L155.243 115.719L155.221 115.45Z" fill="#F2F2F7"/>
<path d="M156.003 124.926L23.0193 135.878L23.0414 136.147L156.025 125.195L156.003 124.926Z" fill="#F2F2F7"/>
<path d="M55.8836 142.774L23.8103 145.412L23.8324 145.681L55.9058 143.043L55.8836 142.774Z" fill="#F2F2F7"/>
<path d="M18.8356 2.76162C19.8541 2.9115 20.7757 3.44847 21.4082 4.26074C22.0408 5.07302 22.3357 6.09798 22.2315 7.12223L20.8195 22.3767C20.7485 23.1768 20.3628 23.916 19.7471 24.4318C19.1313 24.9477 18.336 25.198 17.5359 25.1279C16.7633 25.0419 16.0552 24.6564 15.5636 24.0542C15.0721 23.452 14.8362 22.681 14.9067 21.9069L16.359 6.22262C16.3988 5.73115 16.6194 5.27189 16.9782 4.93371C17.3371 4.59552 17.8086 4.40244 18.3015 4.39182C18.5738 4.39104 18.8432 4.44711 19.0926 4.55643C19.3419 4.66575 19.5657 4.82592 19.7496 5.02668C19.9335 5.22745 20.0734 5.46439 20.1605 5.72235C20.2475 5.98031 20.2798 6.2536 20.2552 6.52474L19.236 17.5344C19.2237 17.6669 19.1592 17.7892 19.0568 17.8742C18.9544 17.9593 18.8224 18.0002 18.6898 17.988C18.6241 17.9819 18.5602 17.9629 18.5019 17.9321C18.4435 17.9013 18.3918 17.8593 18.3497 17.8085C18.3076 17.7577 18.2759 17.6991 18.2565 17.636C18.2371 17.5729 18.2303 17.5067 18.2365 17.441L19.2516 6.47479C19.278 6.23516 19.215 5.99422 19.0747 5.79816C18.9344 5.60211 18.7267 5.46474 18.4913 5.41238C18.3611 5.38721 18.2269 5.38957 18.0976 5.41933C17.9683 5.44909 17.8466 5.50558 17.7404 5.58517C17.6342 5.66476 17.5459 5.76569 17.481 5.88147C17.4162 5.99725 17.3763 6.12532 17.3639 6.25745L15.9116 21.9422C15.8602 22.4346 15.9933 22.9285 16.2851 23.3284C16.5769 23.7283 17.0067 24.0058 17.4913 24.107C17.76 24.1581 18.0363 24.1525 18.3027 24.0906C18.5691 24.0287 18.8196 23.9118 19.0382 23.7475C19.2568 23.5831 19.4386 23.3749 19.5721 23.1362C19.7056 22.8975 19.7877 22.6336 19.8132 22.3613L21.2344 7.01072C21.3108 6.22014 21.0701 5.4316 20.5654 4.81834C20.0607 4.20507 19.3331 3.81725 18.5426 3.74007C17.7762 3.68312 17.018 3.92911 16.431 4.42517C15.8439 4.92123 15.4749 5.62778 15.4032 6.39299L14.1837 19.5623C14.1776 19.6279 14.1587 19.6917 14.1279 19.75C14.0972 19.8083 14.0553 19.8599 14.0046 19.902C13.9539 19.9441 13.8954 19.9758 13.8325 19.9953C13.7695 20.0148 13.7034 20.0217 13.6377 20.0156C13.5721 20.0096 13.5083 19.9907 13.45 19.9599C13.3916 19.9292 13.3399 19.8873 13.2978 19.8366C13.2557 19.7859 13.224 19.7274 13.2045 19.6645C13.185 19.6015 13.1781 19.5353 13.1842 19.4697L14.4034 6.30038C14.4529 5.77331 14.608 5.26161 14.8596 4.79584C15.1112 4.33006 15.4541 3.91977 15.8678 3.58947C16.2815 3.25916 16.7575 3.01562 17.2674 2.87338C17.7773 2.73115 18.3107 2.69314 18.8356 2.76162Z" fill="#007BFF"/>
<path d="M148.768 69.5928L150.536 67.825L148.768 66.0572L126.943 44.2322L125.175 42.4645L123.407 44.2322L87 80.6395L50.5928 44.2322L48.825 42.4645L47.0572 44.2322L25.2322 66.0572L23.4645 67.825L25.2322 69.5928L61.6395 106L25.2322 142.407L23.4645 144.175L25.2322 145.943L47.0572 167.768L48.825 169.536L50.5928 167.768L87 131.361L123.407 167.768L125.175 169.536L126.943 167.768L148.768 145.943L150.536 144.175L148.768 142.407L112.361 106L148.768 69.5928Z" fill="#F34F45" stroke="#121213" stroke-width="5"/>
</svg>
