<svg width="30" height="30" viewBox="0 0 30 30" fill="none" xmlns="http://www.w3.org/2000/svg">
<rect x="0.5" y="0.5" width="29" height="29" rx="14.5" fill="white" stroke="#D1D1D6"/>
<path d="M15.1253 5V12.3619C15.1253 12.3932 15.094 12.4244 15.0628 12.4244C14.844 12.52 14.6565 12.6146 14.4377 12.7093C14.1565 12.8352 13.844 12.962 13.5627 13.12L12.5314 13.5932L11.6876 13.9727L10.6563 14.4469C10.3751 14.5736 10.0938 14.6995 9.78128 14.8576C9.56253 14.9522 9.31251 15.079 9.09375 15.1737C9.0625 15.1737 9.0625 15.2049 9.03125 15.1737H9C9.09375 15.0156 9.18751 14.8888 9.28126 14.7317C9.78128 13.8781 10.3126 13.0254 10.8126 12.1717C11.3439 11.2565 11.9064 10.3395 12.4377 9.42341C12.9377 8.5707 13.4377 7.71798 13.9377 6.89651C14.3127 6.26345 14.6878 5.66432 15.0315 5.03125C15.094 5.03125 15.094 5 15.1253 5C15.1253 5 15.094 5 15.1253 5Z" fill="#8C8C8C"/>
<path d="M21.188 15.1737C20.7192 15.4898 20.2192 15.7737 19.7505 16.0576C18.2191 16.9746 16.7191 17.8595 15.1877 18.7756C15.1565 18.7756 15.1565 18.8069 15.1252 18.8069C15.094 18.8069 15.094 18.7756 15.094 18.7756V12.4244C15.094 12.3932 15.1252 12.3932 15.1565 12.3932C15.2815 12.4557 15.4065 12.52 15.5628 12.5825C15.9378 12.7727 16.344 12.9307 16.7191 13.12C17.0628 13.278 17.3753 13.4361 17.7191 13.562C18.0629 13.72 18.3754 13.8781 18.7192 14.0361C19.0004 14.1629 19.3129 14.2888 19.5942 14.4469C19.8755 14.5736 20.188 14.6995 20.4692 14.8576C20.688 14.9522 20.9068 15.079 21.1568 15.1737C21.1568 15.1424 21.1568 15.1737 21.188 15.1737Z" fill="#141414"/>
<path d="M15.1253 25C15.1253 25 15.0941 25 15.1253 25C15.0941 25 15.0941 25 15.0628 24.9679C14.4378 24.0839 13.844 23.2303 13.219 22.3454L11.3439 19.6917C10.7501 18.839 10.1251 17.9863 9.5313 17.1006L9.06253 16.4371C9.06253 16.4059 9.03128 16.4059 9.03128 16.3746C9.06253 16.3746 9.06253 16.4059 9.09378 16.4059C9.93757 16.9113 10.8126 17.4166 11.6564 17.922C12.6252 18.5229 13.6252 19.0917 14.594 19.6917C14.7503 19.7864 14.9378 19.881 15.0941 19.9757C15.1253 19.9757 15.1253 20.0078 15.1253 20.0391V25Z" fill="#8C8C8C"/>
<path d="M9 14.843C9 14.8117 9 14.8117 9 14.843C9.31251 14.6849 9.62503 14.559 9.93754 14.401L11.1563 13.8322C11.4689 13.6742 11.7814 13.5483 12.0939 13.3902C12.5314 13.1688 13.0002 12.9795 13.4377 12.7581C13.7502 12.6313 14.0627 12.4732 14.3752 12.3473C14.594 12.2527 14.8128 12.158 15.0315 12.0313C15.0628 12.0313 15.0628 12 15.094 12V18.4449C15.0628 18.4771 15.0628 18.4449 15.0315 18.4449C14.9378 18.3824 14.844 18.3503 14.7815 18.2869L9.0625 14.8751C9.03125 14.843 9 14.843 9 14.843ZM21.0943 16.0127C21.0943 16.0439 21.0943 16.0439 21.063 16.0752C19.2505 18.6664 17.4379 21.2254 15.6253 23.8166C15.4378 24.1005 15.2503 24.3532 15.0628 24.6381V19.6137C15.469 19.361 15.8753 19.1084 16.2816 18.8878L21.063 16.0439C21.063 16.0127 21.0943 16.0127 21.0943 16.0127Z" fill="#3C3C3B"/>
<path d="M15.1253 12.3932V5.03308L21.1255 15.08C21.1568 15.1112 21.188 15.1425 21.188 15.1746C21.063 15.1121 20.938 15.0478 20.7818 14.9853C20.6255 14.9219 20.4693 14.8273 20.313 14.7639C20.2193 14.7326 20.1255 14.6692 20.0005 14.6371C19.8442 14.5746 19.6567 14.479 19.5005 14.4165C19.4067 14.3844 19.313 14.3219 19.2192 14.2897L18.5629 14.0058C18.4379 13.9424 18.3442 13.9112 18.2192 13.8478C18.0629 13.7844 17.9066 13.6897 17.7504 13.6263C17.6566 13.5951 17.5629 13.5317 17.4691 13.5004L16.8129 13.2156C16.6878 13.1531 16.5941 13.1209 16.4691 13.0575C16.3128 12.995 16.1566 12.8995 16.0003 12.8361C15.9066 12.7736 15.7816 12.7415 15.6878 12.679L15.1253 12.3941V12.3932Z" fill="#343434"/>
</svg>
