<svg width="28" height="30" viewBox="0 0 28 30" fill="none" xmlns="http://www.w3.org/2000/svg">
<path d="M20.2771 19.0008C23.7629 17.1075 26.4058 15.665 26.6336 15.5529C27.362 15.1695 28.1147 14.1551 26.6336 13.3672C26.1554 13.1195 23.5806 11.7216 20.2771 9.91931L15.6979 14.4936L20.2769 19.0008H20.2771Z" fill="#FFD900"/>
<path d="M15.6978 14.4937L1.11635 29.0296C1.45837 29.0745 1.8448 28.9847 2.30058 28.737C3.25704 28.2193 13.396 22.7424 20.2773 19.0018L15.6978 14.4937V14.4937Z" fill="#F43249"/>
<path d="M15.6978 14.4936L20.2768 9.94154C20.2768 9.94154 3.32614 0.79169 2.30032 0.251794C1.91439 0.0247815 1.48131 -0.0423353 1.09389 0.0247816L15.6978 14.4934V14.4936Z" fill="#00EE76"/>
<path d="M15.6978 14.4936L1.09366 0.0250244C0.500919 0.160492 -1.52588e-05 0.678427 -1.52588e-05 1.73724V27.3167C-1.52588e-05 28.2864 0.38766 28.9847 1.11611 29.0518L15.6976 14.4934L15.6978 14.4936Z" fill="#00D3FF"/>
</svg>
