<svg width="50" height="43" viewBox="0 0 50 43" fill="none" xmlns="http://www.w3.org/2000/svg">
<path d="M18.6558 31.212C17.4843 32.3836 17.4843 34.2831 18.6558 35.4547L21.5197 38.3185C22.1497 38.9485 21.7035 40.0256 20.8126 40.0256H2C1.44772 40.0256 1 39.5779 1 39.0256V35.8974C1 33.6467 2.84874 31.3411 6.45362 29.5387C9.99279 27.7691 14.9504 26.6449 20.4839 26.641L20.851 26.6624C21.7127 26.7126 22.1104 27.7575 21.5 28.3678L18.6558 31.212ZM20.5128 1C22.9678 1 25.3222 1.97523 27.0581 3.71114C28.794 5.44705 29.7692 7.80146 29.7692 10.2564C29.7692 12.7114 28.794 15.0658 27.0581 16.8017C25.3222 18.5376 22.9678 19.5128 20.5128 19.5128C18.0579 19.5128 15.7035 18.5376 13.9676 16.8017C12.2316 15.0658 11.2564 12.7114 11.2564 10.2564C11.2564 7.80146 12.2316 5.44705 13.9676 3.71114C15.7035 1.97523 18.0579 1 20.5128 1Z" stroke="#F2F2F7" stroke-width="2"/>
<path d="M44.9911 23.2252C45.7732 22.437 47.0476 22.4368 47.83 23.2248L48.6023 24.0026C49.3761 24.7819 49.3767 26.0394 48.6037 26.8195L34.6767 40.8744C33.8944 41.6639 32.6183 41.6641 31.8358 40.8748L25.7561 34.7425C24.9827 33.9625 24.9832 32.7047 25.7571 31.9253L26.5311 31.1457C27.3127 30.3586 28.5855 30.3579 29.368 31.1441L31.8367 33.6248C32.6194 34.4112 33.8926 34.4102 34.6741 33.6227L44.9911 23.2252Z" fill="#007BFF"/>
</svg>
