<svg width="43" height="48" viewBox="0 0 43 48" fill="none" xmlns="http://www.w3.org/2000/svg">
<path d="M5.28018 1H37.7198C40.0837 1 42 2.9163 42 5.28018V39.8597C42 42.9603 38.8059 45.0321 35.9747 43.768L34.8105 43.2481C33.181 42.5206 31.319 42.5206 29.6895 43.2481L23.2451 46.1256C22.1345 46.6215 20.8655 46.6215 19.7549 46.1256L13.9228 43.5215C11.8806 42.6097 9.49339 42.9815 7.82522 44.4712C6.4295 45.7176 4.3205 45.7176 2.92478 44.4712L2.42922 44.0286C1.51989 43.2166 1 42.0553 1 40.8362V5.28018C1 2.9163 2.9163 1 5.28018 1Z" stroke="#F2F2F7" strokeWidth="2" strokeLinecap="round"/>
<path d="M16 23.7938L17.4485 25.2423C18.2484 26.0422 19.5454 26.0422 20.3454 25.2423L27.5876 18" stroke="#007BFF" strokeWidth="4" strokeLinecap="round"/>
<path d="M10.9711 33H32.0918" stroke="#F2F2F7" strokeWidth="2" strokeLinecap="round"/>
</svg>
