<svg width="62" height="75" viewBox="0 0 62 75" fill="none" xmlns="http://www.w3.org/2000/svg">
<path d="M30.6818 0L0 13.6364V34.0909C0 53.0114 13.0909 70.7045 30.6818 75C48.2727 70.7045 61.3636 53.0114 61.3636 34.0909V13.6364L30.6818 0ZM30.6818 20.4545C35.4545 20.4545 40.2273 24.2045 40.2273 28.9773V34.0909C42.2727 34.0909 44.3182 36.1364 44.3182 38.5227V50.4545C44.3182 52.5 42.2727 54.5455 39.8864 54.5455H21.1364C19.0909 54.5455 17.0455 52.5 17.0455 50.1136V38.1818C17.0455 36.1364 19.0909 34.0909 21.1364 34.0909V28.9773C21.1364 24.2045 25.9091 20.4545 30.6818 20.4545ZM30.6818 24.5455C27.9545 24.5455 25.5682 26.25 25.5682 28.9773V34.0909H35.7955V28.9773C35.7955 26.25 33.4091 24.5455 30.6818 24.5455Z" fill="#D1D1D6"/>
</svg>
