<svg width="51" height="49" viewBox="0 0 51 49" fill="none" xmlns="http://www.w3.org/2000/svg">
<path d="M1 39V5C1 2.79086 2.79086 1 5 1H46C48.2091 1 50 2.79086 50 5V39C50 41.2091 48.2091 43 46 43H5C2.79086 43 1 41.2091 1 39Z" stroke="#1F263F" stroke-width="2" stroke-linecap="round"/>
<path d="M34 46.4276V43H46V46.4276C46 47.296 45.296 48 44.4276 48H35.5724C34.704 48 34 47.296 34 46.4276Z" stroke="#1F263F" stroke-width="2" stroke-linecap="round"/>
<path d="M5 46.4276V43H18V46.4276C18 47.296 17.296 48 16.4276 48H6.57242C5.704 48 5 47.296 5 46.4276Z" stroke="#1F263F" stroke-width="2" stroke-linecap="round"/>
<rect x="16" y="29.8492" width="22.4194" height="4" transform="rotate(-45 16 29.8492)" fill="#1F263F"/>
<rect x="31.8529" y="32.6777" width="22.4194" height="4" transform="rotate(-135 31.8529 32.6777)" fill="#1F263F"/>
<path d="M25.5 12.1688C31.7581 12.1688 36.8312 17.2419 36.8312 23.5C36.8312 29.7581 31.7581 34.8312 25.5 34.8312C19.2419 34.8312 14.1688 29.7581 14.1688 23.5C14.1688 17.2419 19.2419 12.1688 25.5 12.1688Z" stroke="#1F263F" stroke-width="2.3375" stroke-linecap="round"/>
<path d="M25.5 12C31.8513 12 37 17.1487 37 23.5C37 29.8513 31.8513 35 25.5 35C19.1487 35 14 29.8513 14 23.5C14 17.1487 19.1487 12 25.5 12Z" stroke="#1F263F" stroke-width="2" stroke-linecap="round"/>
<path d="M25.5 18C28.5376 18 31 20.4624 31 23.5C31 26.5376 28.5376 29 25.5 29C22.4624 29 20 26.5376 20 23.5C20 20.4624 22.4624 18 25.5 18Z" fill="#007BFF"/>
</svg>
