<svg width="173" height="232" viewBox="0 0 173 232" fill="none" xmlns="http://www.w3.org/2000/svg">
<g clip-path="url(#clip0_111_547)">
<path opacity="0.05" d="M29.1521 162.799C29.1521 162.799 16.2285 163.933 18.0536 178.522C18.7935 184.733 31.6185 210.954 42.125 231.359H153.949C152.765 224.459 150.891 218.298 149.361 213.862C144.33 199.273 142.702 195.576 142.702 195.576C142.702 195.576 164.653 185.275 158.733 166.693C153.505 150.329 95.4473 30.7559 88.0483 19.2717C88.0483 19.2717 66.9857 -13.9979 38.0803 6.85106C16.8204 22.1797 32.2104 53.0835 32.2104 53.0835C32.2104 53.0835 17.215 50.2248 7.44834 65.6027C-3.60085 82.9522 -0.345288 96.7529 4.29143 108.779C6.51113 114.497 16.9191 136.923 29.1521 162.799Z" fill="#007BFF"/>
<path d="M84.1514 192.175L91.8464 200.406L96.2365 192.717L89.2814 185.62L84.1514 192.175Z" fill="#FFCC99"/>
<path d="M93.4248 191.239L95.0526 189.957C95.0526 189.957 95.1513 190.154 97.3217 191.879C99.492 193.604 101.86 194.245 101.86 194.245C101.86 194.245 109.111 201.047 108.716 201.047C108.322 201.047 109.604 202.23 103.734 208.44C97.8643 214.651 84.6447 228.599 83.7075 228.599C82.7209 228.599 81.4878 229.092 80.7479 226.825C80.008 224.557 84.7433 212.235 85.2859 209.87C85.8285 207.504 87.0617 198.878 87.0617 197.695C87.0617 197.695 88.4922 196.512 89.2321 197.301C89.972 198.04 90.2679 197.794 90.2679 197.794C90.2679 197.794 92.2903 196.512 93.4742 195.083C94.658 193.654 94.6087 192.964 94.6087 192.964L93.4248 191.239Z" fill="#948BF1"/>
<path d="M106.447 198.632C106.447 198.632 106.102 201.983 101.071 207.701C96.0392 213.418 85.0887 225.691 81.1425 227.712C81.1425 227.712 81.7838 229.881 83.9048 229.683C86.0752 229.486 108.815 204.645 108.815 204.645C108.815 204.645 110.196 202.378 109.999 200.751C109.801 199.125 107.335 197.35 106.546 197.301C105.757 197.252 105.461 197.695 105.461 197.695L106.447 198.632Z" fill="#C4E2E5"/>
<path d="M94.3621 215.143C94.3621 215.143 93.6715 213.123 91.8957 214.01C90.12 214.897 86.3218 219.776 84.3487 221.009C82.425 222.241 81.6358 221.6 81.6358 221.6C81.6358 221.6 80.3039 225.543 80.6492 226.529C80.9945 227.515 80.9945 227.515 80.9945 227.515C80.9945 227.515 81.5371 227.958 84.694 224.952C84.694 224.952 92.1424 217.904 94.3621 215.143Z" fill="#87C4CA"/>
<path d="M100.922 193.9C100.922 193.9 101.761 198.878 98.2588 204.251C95.2992 208.884 93.3262 207.504 92.6356 205.138C92.6356 205.138 91.4024 207.257 93.3262 209.377C95.2499 211.496 98.2095 207.799 99.3933 205.926C100.922 203.413 103.142 198.977 102.205 194.541L101.86 194.196L100.922 193.9Z" fill="#5041FF"/>
<path d="M90.9092 197.301C90.9092 197.301 91.1065 195.379 89.4294 195.28C87.7523 195.182 86.0751 196.562 86.0751 196.562C86.0751 196.562 85.2859 207.159 85.0393 210.658L84.0034 213.862C84.0034 213.862 84.7926 214.749 86.7164 213.763C88.6401 212.778 90.3666 205.976 90.5639 204.941C90.7119 203.856 91.1558 198.632 90.9092 197.301Z" fill="#87C4CA"/>
<path d="M85.4339 204.99C85.4339 204.99 84.546 205.039 84.3487 204.201C84.1021 203.363 84.6447 203.068 85.2366 202.871C85.8779 202.673 90.3173 201.688 91.4025 202.23C92.4877 202.723 92.241 203.758 91.3531 204.054C90.9585 204.152 90.7119 204.152 89.4787 204.201C88.3442 204.201 86.7164 204.399 85.4339 204.99Z" fill="#2742D2"/>
<path d="M85.3846 207.701C85.3846 207.701 84.5954 207.701 84.4474 206.961C84.2994 206.222 84.7434 205.976 85.286 205.828C85.8285 205.68 89.4787 205.286 90.4653 205.631C91.6984 206.025 91.1558 207.06 90.8105 207.159C90.4653 207.257 90.3666 207.307 89.2814 207.257C88.2456 207.257 86.5685 207.307 85.3846 207.701Z" fill="#2742D2"/>
<path d="M84.9406 210.264C84.9406 210.264 84.4474 209.919 84.398 209.179C84.3487 208.44 86.5191 208.144 88.2455 208.391C90.0706 208.687 90.2679 209.377 90.1693 209.87C90.0706 210.362 89.9226 210.461 89.528 210.362C89.0841 210.264 86.7657 209.771 84.9406 210.264Z" fill="#2742D2"/>
<path d="M83.9541 212.778C83.9541 212.778 83.4609 212.334 83.8555 211.595C84.2008 210.954 85.8285 210.56 87.4563 211.2C89.0841 211.841 89.3307 212.531 89.1828 212.975C88.9855 213.418 88.8868 213.566 88.4922 213.418C88.0976 213.27 85.7299 212.137 83.9541 212.778Z" fill="#2742D2"/>
<path d="M94.6087 192.914L93.4249 191.239L95.5459 189.563C95.5459 189.563 98.1109 192.668 99.4921 193.309C99.4921 193.259 98.4562 195.477 94.6087 192.914Z" fill="white"/>
<path d="M97.8149 194.442C96.8777 194.442 95.7432 193.999 94.4607 193.161L94.3621 193.062L93.0302 191.14L95.5952 189.07L95.7925 189.316C95.8419 189.366 98.3082 192.372 99.64 193.013L99.8867 193.112L99.7387 193.358C99.7387 193.407 99.3934 194.048 98.5055 194.294C98.3082 194.393 98.0616 194.442 97.8149 194.442ZM94.806 192.717C96.6311 193.9 97.7656 193.949 98.3575 193.802C98.7028 193.703 98.9494 193.506 99.0974 193.358C97.8643 192.619 96.0885 190.598 95.4966 189.908L93.8195 191.239L94.806 192.717Z" fill="#161615"/>
<path d="M104.573 202.723L106.052 213.123C106.052 213.123 104.129 214.503 101.021 214.601C97.9136 214.7 97.0257 214.01 97.0257 214.01L95.2993 201.441L104.573 202.723Z" fill="#FFCC99"/>
<path d="M25.5512 55.7451L21.5558 101.435H26.3898L29.4974 55.7451H25.5512Z" fill="#87C4CA"/>
<path d="M92.1424 73.4395L98.5549 87.1417L109.752 83.7901L114.191 94.5349C114.191 94.5349 99.8867 99.6116 96.6805 100.252C93.4742 100.844 91.4025 100.154 89.5281 97.9851C87.6537 95.8164 81.6358 73.4395 81.6358 73.4395H92.1424Z" fill="#FFCC99"/>
<path d="M34.1834 42.0922C34.1834 42.0922 31.1745 42.3387 29.7933 43.5709C28.4122 44.8031 28.2642 45.4931 28.2642 45.4931H39.2147C39.2641 45.4931 39.2641 42.9794 34.1834 42.0922Z" fill="#C4E2E5"/>
<path d="M36.7484 43.5708H75.0753C75.0753 43.5708 81.9317 43.2751 85.2859 51.5063C88.6401 59.7374 94.7566 73.8831 94.7566 73.8831H82.4249C82.4249 73.8831 84.25 83.3465 86.7164 88.3739C89.1827 93.4013 90.3666 96.3093 90.2186 98.2808C90.0706 100.252 88.6894 101.337 88.6894 101.337H51.941L48.1428 87.191L37.9322 92.5141C37.9322 92.5141 33.0982 80.7342 29.9906 72.0102C26.883 63.2862 21.6051 52.7385 25.3539 47.6618C28.6095 43.1272 36.7484 43.5708 36.7484 43.5708Z" fill="#007BFF"/>
<path d="M83.9048 80.2906C83.9048 80.2906 91.5011 80.4878 94.7073 78.9105L93.3755 76.0518L82.9676 76.2983L83.9048 80.2906Z" fill="#FF9D00"/>
<path d="M94.7074 73.8831L95.5459 76.1504C95.5459 76.1504 94.7074 77.1362 90.4653 77.3333C86.5191 77.4812 83.1156 77.3333 83.1156 77.3333L82.3757 73.9324H94.7074V73.8831Z" fill="#948BF1"/>
<path d="M71.5731 103.111C71.2771 103.111 71.0798 102.914 71.0798 102.618V100.105C71.0305 99.5623 69.9946 90.6905 68.8108 85.6631C67.5776 80.4878 56.8244 52.2949 56.7257 52.0484C56.6764 51.9006 56.6764 51.7034 56.8244 51.5556C56.8244 51.5063 57.3176 50.9641 58.0576 50.4712C58.4028 49.8798 58.9454 45.6902 59.2414 41.9443C59.2414 41.6486 59.488 41.4515 59.784 41.5007C60.0799 41.5007 60.2773 41.7472 60.2279 42.0429C59.784 47.7604 59.2414 50.8655 58.6495 51.2598C58.3042 51.5063 57.9589 51.802 57.8109 51.9991C58.9948 55.1536 68.6628 80.4878 69.8466 85.4659C71.0798 90.6905 72.1157 99.9566 72.165 100.006V100.055V102.618C72.0664 102.914 71.8197 103.111 71.5731 103.111Z" fill="#2742D2"/>
<path d="M96.1871 207.701C96.1871 207.701 97.223 208.391 100.725 208.046C104.227 207.701 105.165 206.863 105.165 206.863L104.918 205.138L95.8911 205.581L96.1871 207.701Z" fill="#FF9D00"/>
<path d="M85.4339 193.555L86.7657 194.985C86.7657 194.985 89.1827 193.703 90.3666 190.992L89.824 186.704C89.824 186.704 88.3442 191.732 85.4339 193.555Z" fill="#FF9D00"/>
<path d="M101.564 145.006C101.564 139.831 90.6132 106.167 88.5908 101.287H50.3626L49.3268 103.358C49.3268 103.358 49.2281 105.723 50.3626 106.413C51.4478 107.103 49.7214 152.301 50.8559 157.328C51.9904 162.356 81.6851 195.773 81.6851 195.773C81.6851 195.773 88.1469 193.112 89.824 187.788L92.5863 204.694C92.5863 204.694 94.5594 205.926 100.183 205.926C105.806 205.926 107.976 203.314 107.976 203.314C107.976 203.314 101.564 150.181 101.564 145.006ZM70.7839 154.913C69.5507 151.611 73.2009 117.158 73.2009 117.158C73.2009 117.158 79.3174 141.359 81.1425 147.618C82.7703 153.188 87.5056 175.959 87.5056 175.959C87.5056 175.959 72.0664 158.215 70.7839 154.913Z" fill="#FFC633"/>
<path d="M89.824 105.231H54.4567C54.1607 105.231 53.9634 105.033 53.9634 104.738C53.9634 104.442 54.1607 104.245 54.4567 104.245H89.824C90.1199 104.245 90.3172 104.442 90.3172 104.738C90.3172 105.033 90.1199 105.231 89.824 105.231Z" fill="#FFAC27"/>
<path d="M15.1926 97.4429H54.1114C54.1114 97.4429 55.8378 128.987 54.3087 136.627C52.7796 144.267 51.645 144.415 50.4119 144.563C49.1787 144.71 12.8249 144.563 12.8249 144.563C12.8249 144.563 11.8877 143.823 11.7397 142.295C11.5917 140.767 13.2688 136.036 13.8608 132.093C14.5513 128.1 15.1926 97.4429 15.1926 97.4429Z" fill="#C4E2E5"/>
<path d="M62.1023 69.4472L63.1875 61.5611C63.2862 60.9696 63.7794 60.526 64.3713 60.526L75.9631 60.5753C76.703 60.5753 77.2456 61.2653 77.147 61.9554L73.3981 83.0507C73.2995 83.6422 72.8062 84.0365 72.2143 84.0365H61.2638C60.5239 84.0365 59.9813 83.3958 60.0799 82.6564L62.1023 69.4472Z" fill="#C4E2E5"/>
<path d="M75.9632 60.5753C75.9632 60.5753 76.0618 60.5753 76.2592 60.6246C76.7524 60.7232 77.8376 61.0189 77.8376 62.3497H65.4566L64.3714 60.526" fill="#C4E2E5"/>
<path d="M63.1382 70.4822L64.2234 62.5961C64.322 62.0047 64.8153 61.5611 65.4072 61.5611L76.999 61.6104C77.7389 61.6104 78.2815 62.3004 78.1828 62.9904L74.434 84.0858C74.3354 84.6773 73.8421 85.0716 73.2502 85.0716H62.2996C61.5597 85.0716 61.0171 84.4308 61.1158 83.6915L63.1382 70.4822Z" fill="#87C4CA"/>
<path d="M67.2323 83.3958H74.9273C74.9273 83.3958 76.2098 83.593 75.9138 82.0157C75.6179 80.4878 73.2009 80.5864 73.2009 80.5864L67.2323 83.3958Z" fill="#FFB76A"/>
<path d="M64.618 84.4309C64.618 84.4309 67.479 83.1494 70.044 82.5086C72.609 81.8679 72.9543 81.1285 73.5462 80.1428C74.1381 79.157 74.4834 78.5655 74.0888 77.8755C73.6942 77.2348 72.9543 77.0869 72.6583 77.5305C72.3623 78.0234 65.0127 80.8328 65.0127 80.8328L64.766 84.2337" fill="#FFCC99"/>
<path d="M45.8245 101.83C45.8245 101.83 48.5868 106.019 54.5553 106.019L54.506 100.154L45.8245 101.83Z" fill="#DCEEF0"/>
<path d="M40.5465 90.789C40.5465 90.789 43.1609 100.055 45.8245 101.83C48.4882 103.604 52.9769 102.372 55.4925 99.0202C58.0082 95.6686 65.9498 82.2622 65.9498 82.2622C65.9498 82.2622 70.0439 80.5864 71.3758 79.3049C72.6583 78.0234 73.9408 75.4111 74.6807 73.686C75.4206 71.9116 74.6807 71.2709 73.5955 71.4187C72.5103 71.6159 69.3534 76.4954 68.8108 76.8405C68.2682 77.2348 61.6091 76.0518 61.6091 76.0518L61.8557 71.2216C61.8557 71.2216 59.8333 71.7638 58.3042 75.6082C57.6629 77.284 56.8737 79.7977 55.8872 81.5228C54.8513 83.2972 50.2639 89.1132 50.2639 89.1132L49.0801 86.3038L40.5465 90.789Z" fill="#FFCC99"/>
<path d="M49.8693 88.1767C49.8693 88.1767 48.0442 89.3597 45.1833 91.7748C43.1115 93.5492 42.125 95.5207 42.125 95.5207L40.5465 90.7397L49.1787 86.5009L49.8693 88.1767Z" fill="#FF9D00"/>
<path d="M82.3756 74.3761C82.129 74.3761 81.9317 74.1789 81.8824 73.9325C81.8824 73.8832 81.1425 68.5107 79.2187 62.6947C77.2456 56.8787 76.2098 54.7593 76.2098 54.7593C76.1111 54.5129 76.2098 54.2171 76.4071 54.1186C76.6537 54.02 76.9497 54.1186 77.0483 54.3157C77.0977 54.4143 78.1335 56.4844 80.1066 62.3497C82.0797 68.2643 82.8196 73.7353 82.8196 73.7846C82.8689 74.031 82.6716 74.2775 82.3756 74.3268C82.4249 74.3761 82.3756 74.3761 82.3756 74.3761Z" fill="#2742D2"/>
<path d="M58.3042 50.8655C58.3042 50.8655 60.2279 49.6333 62.053 50.8655C63.8781 52.0977 65.7525 55.7943 65.7525 55.7943C65.7525 55.7943 67.8736 50.4712 66.7884 45.8381C65.7032 41.205 59.5373 40.17 59.5373 40.17L59.636 41.9936L58.3042 50.8655Z" fill="#948BF1"/>
<path d="M46.6631 41.3036V32.2838H59.8333V41.6486C59.8333 41.6486 58.8468 50.1755 58.3042 50.8162C57.7616 51.457 57.1697 51.8513 57.1697 51.8513C57.1697 51.8513 52.4836 50.7669 48.9321 46.4296C45.3806 42.0922 46.6631 41.3036 46.6631 41.3036Z" fill="#FFCC99"/>
<path d="M57.1697 51.8513C57.1697 51.8513 55.3939 50.7176 54.1114 49.7811C49.2774 46.331 46.6138 41.2543 46.6138 41.2543L42.7169 43.768C42.7169 43.768 43.7528 48.8447 47.107 52.7877C49.4254 55.4986 54.6047 58.7023 54.6047 58.7023C54.6047 58.7023 54.3087 54.365 55.3446 52.8863C56.4298 51.457 57.1697 51.8513 57.1697 51.8513Z" fill="#948BF1"/>
<path d="M74.1874 102.372C74.0394 102.372 73.8421 102.273 73.7435 102.125L71.1292 97.6894C70.9812 97.4429 71.0798 97.1472 71.3265 96.9993C71.5731 96.8515 71.8691 96.9501 72.017 97.1965L74.6314 101.632C74.7793 101.879 74.6807 102.175 74.434 102.322C74.3354 102.372 74.2861 102.372 74.1874 102.372Z" fill="#2E2EA6"/>
<path d="M80.2546 102.372C80.1559 102.372 80.0573 102.322 79.9586 102.273C79.7613 102.076 79.712 101.78 79.9093 101.583C83.9541 96.6543 83.9048 90.2961 83.9048 90.2469C83.9048 89.9511 84.1021 89.754 84.398 89.754C84.6447 89.754 84.8913 89.9511 84.8913 90.2469C84.8913 90.5426 84.9406 96.9993 80.6492 102.224C80.5505 102.322 80.4026 102.372 80.2546 102.372Z" fill="#2E2EA6"/>
<path d="M75.3713 90.099C75.2726 90.099 75.1739 90.0497 75.0753 90.0004C71.8197 87.3389 66.6897 87.2403 66.6404 87.2403C66.3445 87.2403 66.1472 86.9938 66.1472 86.7474C66.1472 86.501 66.3938 86.2545 66.6404 86.2545C66.8871 86.2545 72.165 86.3531 75.6672 89.2118C75.8645 89.3597 75.9138 89.7047 75.7165 89.9019C75.6672 90.0497 75.5192 90.099 75.3713 90.099Z" fill="#2E2EA6"/>
<path d="M79.5147 62.5468C79.4161 62.5468 79.3174 62.4975 79.2188 62.4483C79.0215 62.3004 78.9721 61.9554 79.1201 61.7582C81.2411 58.8502 81.8824 55.6958 81.8824 55.6465C81.9317 55.4 82.1784 55.2029 82.4743 55.2522C82.721 55.3015 82.9183 55.5479 82.8689 55.8436C82.8196 55.9915 82.1784 59.2445 79.9093 62.3497C79.8107 62.4975 79.6627 62.5468 79.5147 62.5468Z" fill="#2742D2"/>
<path d="M40.9412 62.8919C40.8919 62.8919 40.8919 62.8919 40.8426 62.8919C40.5959 62.8426 40.3986 62.5961 40.4479 62.3497C40.9412 59.0967 40.1027 54.4636 40.0533 54.4143C40.004 54.1678 40.2013 53.8721 40.4479 53.8228C40.6946 53.7735 40.9905 53.9707 41.0399 54.2171C41.0892 54.4143 41.9277 59.0967 41.4345 62.4976C41.3851 62.6947 41.1878 62.8919 40.9412 62.8919Z" fill="#2742D2"/>
<path d="M50.9052 40.5643C50.9052 40.5643 54.4567 46.8732 58.9948 47.9575L59.6853 43.8666C59.7347 43.8666 54.8513 42.6344 50.9052 40.5643Z" fill="#FF9D00"/>
<path d="M47.9949 36.4733C47.9949 36.4733 49.3267 39.7264 53.9141 42.0922C60.1293 45.1974 60.9678 44.1623 62.6943 43.5708C64.3714 42.9794 65.9992 39.7756 66.4924 36.8183C67.035 33.861 66.1965 30.3616 66.1965 30.0658C66.1965 29.7701 66.6404 28.6858 66.6897 27.01C66.7391 25.3342 66.4924 22.2783 64.6673 18.7788C62.8422 15.2794 58.7481 13.7021 55.6899 13.3078C52.6316 12.9135 47.1563 13.85 44.394 18.1874C41.6317 22.5247 43.6541 30.3616 43.5555 31.0516C43.5062 31.6924 47.9949 36.4733 47.9949 36.4733Z" fill="#FFCC99"/>
<path d="M63.6315 32.3331L61.4118 27.355C61.7078 26.3692 63.1382 25.137 64.8153 25.6792C66.4925 26.2214 66.6898 26.7143 66.6898 26.7143C66.6898 26.7143 66.5911 28.9815 66.2458 29.8194C66.2458 29.8194 66.5911 31.9881 66.6404 33.4175C66.6898 34.7975 64.6674 34.4032 63.6315 32.3331Z" fill="url(#paint0_linear_111_547)"/>
<path d="M49.968 25.0384C49.968 25.0384 48.1922 25.3342 47.8962 27.4536C47.5509 30.0166 49.1787 30.608 50.2639 31.0516V32.5303C50.2639 33.3682 49.7213 34.0582 48.9321 34.3046C48.6855 34.4032 48.4388 34.5018 48.2909 34.6004C47.8469 35.044 47.9949 36.4733 47.9949 36.4733L46.6137 39.0856C46.6137 39.0856 46.0218 37.0155 44.1967 34.2061C42.3716 31.4459 41.6811 30.263 41.5331 25.6792C41.3851 21.0954 42.125 18.3352 43.7035 15.723C45.0353 13.5543 48.1922 12.0756 53.0755 11.1392C57.9589 10.2027 64.0261 13.8007 65.5059 15.0822C66.9857 16.3637 67.479 19.666 67.479 19.666C67.1337 20.2575 65.6045 20.8489 65.6045 20.8489L64.6673 18.7788C64.6673 18.7788 62.7929 23.0176 58.7481 24.6934C54.7033 26.3692 52.4836 25.7778 52.4836 25.7778C52.4836 25.7778 50.7079 26.9114 49.968 25.0384Z" fill="#172B4D"/>
<path d="M93.1782 92.7605C92.9809 92.7112 92.8822 92.6127 92.8822 92.4155C93.6714 87.1417 98.4561 86.8459 98.5054 86.8459C98.6534 86.8459 98.8014 86.9445 98.8014 87.0924C98.8014 87.2403 98.7028 87.3881 98.5548 87.3881C98.3575 87.3881 94.214 87.6839 93.4741 92.4648C93.4741 92.662 93.3261 92.7605 93.1782 92.7605Z" fill="#C97C00"/>
<path d="M114.142 79.7977H110.936H105.165L107.927 96.1615C108.075 97.1965 108.963 97.9358 110.048 97.9358H110.985H114.191H115.129C116.164 97.9358 117.052 97.1965 117.25 96.1615L120.012 79.7977H114.142Z" fill="#C4E2E5"/>
<path d="M114.833 81.375L112.564 97.9358H114.981C116.115 97.9358 117.102 97.0979 117.25 96.0136L119.864 80.3399L114.833 81.375Z" fill="#A7D4D9"/>
<path d="M120.407 85.0223C120.407 85.0223 119.716 84.283 117.94 83.7901C116.214 83.2972 114.29 82.5579 113.895 82.8536C113.501 83.1493 112.909 83.9872 113.599 84.4801C114.339 84.973 117.151 85.7123 117.644 86.0081C118.138 86.3038 118.976 87.2403 119.469 87.191C120.012 87.1417 121.344 86.1559 120.407 85.0223Z" fill="#FFCC99"/>
<path d="M119.765 86.6981C119.519 86.4517 117.398 84.8251 116.214 84.5294C115.03 84.2337 113.452 84.628 113.008 84.9237C112.564 85.2195 112.169 86.2052 113.254 86.846C114.29 87.4867 115.375 87.191 115.721 87.4867C116.017 87.7824 118.729 90.2469 119.568 89.9511C120.456 89.6554 121.245 88.1275 119.765 86.6981Z" fill="#FFCC99"/>
<path d="M118.779 89.3104C118.532 89.064 116.411 87.4375 115.227 87.1417C114.043 86.846 112.465 87.2403 112.021 87.536C111.577 87.8318 111.182 88.8175 112.268 89.4583C113.304 90.099 114.389 89.8033 114.734 90.099C115.03 90.3947 117.743 92.8592 118.581 92.5634C119.469 92.2677 120.308 90.7398 118.779 89.3104Z" fill="#FFCC99"/>
<path d="M118.581 92.5634C118.581 92.5634 118.088 91.3805 117.151 90.789C116.214 90.1976 113.501 90.6412 112.761 90.9369C112.021 91.2326 111.084 92.2184 111.577 93.007C112.07 93.7956 113.008 93.8449 113.846 93.7956C114.685 93.7463 115.671 93.4506 115.819 93.5492C115.967 93.6478 116.954 94.7814 117.792 94.6828C118.631 94.5842 118.976 93.2042 118.581 92.5634Z" fill="#FFCC99"/>
<path d="M107.68 94.9293L107.138 91.6762C107.138 91.6762 108.42 88.3739 109.111 86.9938C109.752 85.6138 109.505 84.3816 108.42 83.9872C107.286 83.5929 105.263 87.6346 104.77 88.3739C104.77 88.3739 103.783 90.1976 103.635 91.4791" fill="#FFCC99"/>
<path d="M117.694 74.376H107.434V75.8547H117.694V74.376Z" fill="#87C4CA"/>
<path d="M119.469 75.559H105.658V77.5798H119.469V75.559Z" fill="#C4E2E5"/>
<path d="M120.801 80.1427C120.801 80.1427 116.46 81.5228 112.564 81.5228C107.335 81.5228 104.326 80.1427 104.326 80.1427V77.7769C104.326 77.7769 106.348 76.249 112.564 76.249C117.94 76.249 120.801 77.7769 120.801 77.7769V80.1427Z" fill="#87C4CA"/>
<path d="M89.3801 187.887C89.3307 187.591 83.2142 155.948 81.3891 149.541C80.2053 145.351 79.4161 143.084 79.4161 143.035L80.3533 142.739C80.3533 142.739 81.1425 145.055 82.3264 149.294C84.1514 155.751 90.268 187.394 90.3173 187.69L89.3801 187.887Z" fill="#FF9D00"/>
<path d="M18.7934 115.68H51.5464C51.5464 115.68 52.6809 115.926 52.6809 117.602C52.6809 119.278 52.5329 131.55 52.385 133.423C52.237 135.346 50.7078 141.408 49.9186 141.704C49.1294 142 15.9818 141.704 15.9818 141.704C15.9818 141.704 14.9953 141.014 15.5379 138.5C16.0805 135.986 16.919 132.783 17.363 130.072C17.7082 127.903 17.6096 120.116 17.5603 117.01C17.4616 116.271 18.0535 115.68 18.7934 115.68Z" fill="#A7D4D9"/>
<path d="M34.1834 42.0922H39.8066C39.8066 42.0922 44.838 46.1832 47.6003 58.801C50.3626 71.4188 47.8469 80.3399 47.8469 80.3399L44.542 71.7638C44.542 71.7638 44.3447 63.2862 42.3223 56.6816C40.2999 50.0769 37.5869 45.3453 34.1834 42.0922Z" fill="#87C4CA"/>
<path d="M96.6804 211.052L94.6086 211.299C94.6086 211.299 94.7073 211.496 94.362 214.256C94.0661 217.016 92.8329 219.185 92.8329 219.185C92.8329 219.185 92.5862 229.141 92.8329 228.846C93.0795 228.599 93.0795 230.275 101.613 230.521C110.147 230.768 129.335 231.211 130.025 230.521C130.716 229.831 131.949 229.289 130.864 227.17C129.779 225.05 117.694 219.727 115.622 218.396C113.55 217.115 106.546 211.94 105.707 211.052C105.707 211.052 103.882 211.25 103.882 212.285C103.882 213.369 103.487 213.369 103.487 213.369C103.487 213.369 101.12 213.911 99.2947 213.763C97.4696 213.615 97.0257 213.073 97.0257 213.073L96.6804 211.052Z" fill="#948BF1"/>
<path d="M92.7835 225.494C92.7835 225.494 95.3979 227.613 103.044 228.106C110.689 228.599 127.066 229.486 131.258 228.106C131.258 228.106 132.344 230.078 130.666 231.458C128.989 232.838 95.2992 231.458 95.2992 231.458C95.2992 231.458 92.6849 230.866 91.6984 229.536C90.7118 228.254 91.1558 225.247 91.6984 224.656C92.2409 224.065 92.7342 224.163 92.7342 224.163V225.494H92.7835Z" fill="#C4E2E5"/>
<path d="M113.057 228.599C113.057 228.599 112.12 226.677 113.994 226.085C115.869 225.494 122.034 226.184 124.303 225.691C126.572 225.198 126.622 224.163 126.622 224.163C126.622 224.163 130.371 226.036 130.815 226.973C131.259 227.909 131.259 227.909 131.259 227.909C131.259 227.909 131.209 228.599 126.868 228.698C126.819 228.648 116.559 228.944 113.057 228.599Z" fill="#87C4CA"/>
<path d="M93.3261 218.249C93.3261 218.249 96.2857 222.339 102.55 223.67C107.927 224.804 108.321 222.438 107.138 220.319C107.138 220.319 109.505 220.91 109.653 223.818C109.801 226.677 105.066 226.184 102.945 225.691C100.084 225.001 95.3979 223.424 92.8822 219.678V219.185L93.3261 218.249Z" fill="#5041FF"/>
<path d="M102.797 213.517C102.797 213.517 101.268 212.285 102.402 211.052C103.487 209.82 105.658 209.623 105.658 209.623C105.658 209.623 113.747 216.573 116.411 218.84L119.42 220.368C119.42 220.368 119.469 221.502 117.447 222.192C115.375 222.882 109.357 219.284 108.469 218.692C107.582 218.101 103.586 214.651 102.797 213.517Z" fill="#87C4CA"/>
<path d="M109.801 213.024C109.801 213.024 110.443 212.433 109.999 211.693C109.555 210.954 109.012 211.102 108.42 211.397C107.828 211.693 103.931 214.601 103.537 215.686C103.142 216.819 103.981 217.312 104.721 216.868C105.066 216.671 105.609 216.031 106.496 215.193C107.384 214.453 108.716 213.615 109.801 213.024Z" fill="#2742D2"/>
<path d="M112.12 215.094C112.12 215.094 112.761 214.503 112.317 213.763C111.873 212.975 111.33 213.172 110.738 213.468C110.147 213.763 106.299 216.277 105.904 217.411C105.51 218.544 106.398 219.086 107.236 218.643C107.582 218.446 107.779 218.249 108.667 217.411C109.505 216.573 110.788 215.587 112.12 215.094Z" fill="#2742D2"/>
<path d="M114.093 216.967C114.093 216.967 114.635 216.425 114.191 215.784C113.747 215.143 113.304 215.341 112.81 215.587C112.317 215.883 109.505 218.15 109.012 219.087C108.42 220.269 109.555 220.565 109.851 220.417C110.147 220.22 110.245 220.171 111.034 219.432C111.725 218.692 112.958 217.509 114.093 216.967Z" fill="#2742D2"/>
<path d="M116.214 218.446C116.214 218.446 116.312 217.854 115.869 217.312C115.375 216.77 113.599 218.101 112.613 219.53C111.528 221.058 111.873 221.699 112.317 221.945C112.761 222.192 112.909 222.192 113.156 221.847C113.304 221.403 114.537 219.431 116.214 218.446Z" fill="#2742D2"/>
<path d="M118.68 219.53C118.68 219.53 118.68 218.889 117.94 218.643C117.25 218.446 115.819 219.333 115.129 220.959C114.438 222.586 114.734 223.227 115.178 223.424C115.622 223.621 115.819 223.621 115.967 223.227C116.164 222.783 117.003 220.319 118.68 219.53Z" fill="#2742D2"/>
<path d="M97.075 213.073L96.6804 211.052L93.9674 211.348C93.9674 211.348 94.3621 215.341 93.8195 216.819C93.8688 216.819 96.1871 217.608 97.075 213.073Z" fill="#C4E2E5"/>
<path d="M37.7349 106.463C26.1925 103.111 19.9773 98.0344 19.7307 97.788L20.3719 97.0486C20.4213 97.0979 26.6858 102.224 38.0309 105.526L37.7349 106.463Z" fill="#87C4CA"/>
<path d="M57.7616 30.5095C58.2519 30.5095 58.6495 30.1122 58.6495 29.6223C58.6495 29.1323 58.2519 28.7351 57.7616 28.7351C57.2712 28.7351 56.8737 29.1323 56.8737 29.6223C56.8737 30.1122 57.2712 30.5095 57.7616 30.5095Z" fill="#C97C00"/>
<path d="M64.47 30.5095C64.9604 30.5095 65.3579 30.1122 65.3579 29.6223C65.3579 29.1323 64.9604 28.7351 64.47 28.7351C63.9796 28.7351 63.5821 29.1323 63.5821 29.6223C63.5821 30.1122 63.9796 30.5095 64.47 30.5095Z" fill="#C97C00"/>
<path d="M66.5417 28.2915C66.4431 28.2915 66.3444 28.2422 66.2951 28.1929C65.8511 27.5522 65.3085 27.2564 64.5686 27.355C63.7794 27.4043 63.3848 27.8972 63.3848 27.8972C63.2861 28.045 63.0888 28.045 62.9902 27.9465C62.8422 27.8479 62.8422 27.6507 62.9409 27.5522C62.9409 27.5029 63.4835 26.8621 64.5193 26.7635C65.4565 26.665 66.1964 27.0593 66.7883 27.8479C66.887 27.9958 66.8377 28.1436 66.739 28.2422C66.6404 28.2915 66.591 28.2915 66.5417 28.2915Z" fill="#C97C00"/>
<path d="M60.1786 28.2915C60.0799 28.2915 60.0306 28.2422 59.9813 28.1929C59.5866 27.7 59.0934 27.2072 57.9095 27.3057C56.627 27.4043 56.0351 27.8479 56.0351 27.8479C55.8871 27.9465 55.7392 27.8972 55.6405 27.7986C55.5419 27.6507 55.5912 27.5029 55.6898 27.4043C55.7392 27.4043 56.4297 26.8621 57.8602 26.7636C59.2414 26.665 59.9319 27.2072 60.4252 27.8479C60.5239 27.9465 60.5239 28.1436 60.3759 28.2422C60.2772 28.2422 60.2279 28.2915 60.1786 28.2915Z" fill="#C97C00"/>
<path d="M63.2368 80.2906C63.2368 80.2906 68.1695 78.2205 69.0081 76.594C70.1919 74.3267 70.9318 72.5031 70.4879 72.0102C70.0439 71.5173 69.0574 71.7637 68.4655 72.3059C67.8735 72.7988 66.6897 74.0803 65.9991 74.721C65.3085 75.3618 61.609 76.7419 61.609 76.7419" fill="#FFCC99"/>
<path d="M58.9455 100.45L59.932 105.625H61.7078L60.5733 100.45H58.9455Z" fill="#FF9D00"/>
<path d="M66.1472 100.45L67.183 105.625H68.9588L67.8243 100.45H66.1472Z" fill="#FF9D00"/>
<path d="M76.2098 100.45L77.2457 105.625H79.0215L77.8376 100.45H76.2098Z" fill="#FF9D00"/>
<path d="M82.9676 100.45L84.0034 105.625H85.7792L84.5953 100.45H82.9676Z" fill="#FF9D00"/>
<path d="M73.7928 117.503L72.8063 117.405C72.8063 117.355 73.1022 114.694 72.8063 110.849C72.5103 107.005 71.6718 104.984 71.6718 104.935L71.3758 104.245H75.1246L75.2726 104.393C75.3713 104.54 75.9632 105.329 75.8645 108.04C75.7659 110.455 74.3847 111.638 73.8421 112.032C74.0394 115.285 73.8421 117.405 73.7928 117.503ZM72.8556 105.231C73.1516 106.167 73.5955 107.991 73.8421 110.751V110.8C74.2861 110.307 74.878 109.42 74.9273 108.04C74.9766 106.364 74.7793 105.576 74.6807 105.231H72.8556Z" fill="#FF9D00"/>
<path d="M63.1382 134.508L63.0888 133.522C68.7614 133.177 71.573 129.48 71.6224 129.48L72.4116 130.072C72.2636 130.22 69.2054 134.113 63.1382 134.508Z" fill="#FF9D00"/>
<path d="M66.4431 165.756L65.9005 164.919C69.1068 162.701 70.3399 154.864 70.3399 154.815L71.3265 154.962C71.2278 155.307 69.9946 163.292 66.4431 165.756Z" fill="#FF9D00"/>
<path d="M89.8733 148.851V147.865C89.9226 147.865 94.2634 147.766 97.6669 145.499L98.2095 146.337C94.51 148.703 90.0213 148.851 89.8733 148.851Z" fill="#FF9D00"/>
<path d="M103.685 195.724C100.281 194.935 95.2006 191.337 95.0033 191.189L95.5952 190.401C95.6445 190.45 100.725 194.048 103.931 194.787L103.685 195.724Z" fill="#FF9D00"/>
<path d="M62.2997 38.2477C62.1517 38.2477 61.9544 38.2477 61.7571 38.2477C59.3894 38.0999 58.0575 37.0155 58.0082 36.9662C57.9096 36.8677 57.8602 36.6705 57.9589 36.5719C58.0575 36.4733 58.2549 36.4241 58.3535 36.5226C58.3535 36.5226 59.5867 37.5577 61.7571 37.6563C63.6808 37.7548 64.2234 37.262 64.3714 37.0648C64.47 36.9169 64.618 36.9169 64.766 36.9662C64.914 37.0648 64.914 37.2127 64.8646 37.3605C64.5687 37.8041 63.9274 38.2477 62.2997 38.2477Z" fill="#C97C00"/>
<path d="M37.5869 125.291C27.031 117.799 26.1431 110.011 26.0938 109.716L27.0803 109.617L26.587 109.666L27.0803 109.617C27.0803 109.716 27.9682 117.257 38.1295 124.502L37.5869 125.291Z" fill="#87C4CA"/>
<path d="M108.443 56.3619L107.539 56.756L111.562 65.9722L112.466 65.5781L108.443 56.3619Z" fill="#87C4CA"/>
<path d="M94.4114 65.4056H71.0305C70.7345 65.4056 70.5372 65.2084 70.5372 64.9127C70.5372 64.617 70.7345 64.4198 71.0305 64.4198H94.4114C94.8553 64.4198 95.2006 64.2227 95.4472 63.8776C95.6939 63.5326 95.7432 63.089 95.5459 62.6947L92.7343 55.9915C92.6356 55.7451 92.7343 55.4493 92.9809 55.3508C93.2275 55.2522 93.5235 55.3508 93.6222 55.5972L96.4338 62.3004C96.7297 62.9904 96.6311 63.7791 96.2365 64.4198C95.8419 65.0113 95.1513 65.4056 94.4114 65.4056Z" fill="#87C4CA"/>
<path d="M84.8913 59.6881L81.7344 51.8513H126.72L129.828 59.6881H84.8913Z" fill="#C4E2E5"/>
<path d="M104.129 70.3837L101.021 62.5468H145.958L149.115 70.3837H104.129Z" fill="#C4E2E5"/>
<path d="M100.824 33.7132C99.64 40.5643 93.1288 46.1338 86.2724 46.1338C79.416 46.1338 74.8286 40.5643 76.0125 33.7132C77.1963 26.8621 83.7074 21.2925 90.5638 21.2925C97.4203 21.3418 102.008 26.8621 100.824 33.7132Z" fill="#E08900"/>
<path d="M99.1468 33.7132C97.9629 40.5643 91.4518 46.1338 84.5954 46.1338C77.739 46.1338 73.1516 40.5643 74.3354 33.7132C75.5193 26.8621 82.0304 21.2925 88.8868 21.2925C95.6939 21.3418 100.331 26.8621 99.1468 33.7132Z" fill="#FFAC27"/>
<path d="M97.3217 33.7132C96.3351 39.5785 90.7612 44.3595 84.8913 44.3595C79.0214 44.3595 75.1246 39.6278 76.1111 33.7625C77.0977 27.8972 82.6716 23.1655 88.5415 23.1655C94.4114 23.1655 98.3082 27.8972 97.3217 33.7132Z" fill="#FFC633"/>
<path d="M105.411 22.5247H90.1693C89.8733 22.5247 89.676 22.3276 89.676 22.0319C89.676 21.7361 89.8733 21.539 90.1693 21.539H105.411C105.707 21.539 105.904 21.7361 105.904 22.0319C105.904 22.3276 105.707 22.5247 105.411 22.5247Z" fill="#FFC633"/>
<path d="M107.976 28.1436H92.7343C92.4383 28.1436 92.241 27.9465 92.241 27.6508C92.241 27.355 92.4383 27.1579 92.7343 27.1579H107.976C108.272 27.1579 108.47 27.355 108.47 27.6508C108.47 27.9465 108.272 28.1436 107.976 28.1436Z" fill="#FFC633"/>
<path d="M127.214 28.1436H111.972C111.676 28.1436 111.478 27.9465 111.478 27.6508C111.478 27.355 111.676 27.1579 111.972 27.1579H127.214C127.51 27.1579 127.707 27.355 127.707 27.6508C127.707 27.9465 127.51 28.1436 127.214 28.1436Z" fill="#FFC633"/>
<path d="M136.191 34.8468H93.4248C93.1288 34.8468 92.9315 34.6497 92.9315 34.3539C92.9315 34.0582 93.1288 33.8611 93.4248 33.8611H136.191C136.487 33.8611 136.684 34.0582 136.684 34.3539C136.684 34.6497 136.438 34.8468 136.191 34.8468Z" fill="#FFC633"/>
<path d="M117.891 39.4307H97.0257C96.7297 39.4307 96.5324 39.2335 96.5324 38.9378C96.5324 38.642 96.7297 38.4449 97.0257 38.4449H117.891C118.187 38.4449 118.384 38.642 118.384 38.9378C118.384 39.2335 118.187 39.4307 117.891 39.4307Z" fill="#FFC633"/>
<path d="M106.94 42.3386H91.6983C91.4024 42.3386 91.2051 42.1415 91.2051 41.8458C91.2051 41.55 91.4024 41.3529 91.6983 41.3529H106.94C107.236 41.3529 107.434 41.55 107.434 41.8458C107.434 42.1415 107.187 42.3386 106.94 42.3386Z" fill="#FFC633"/>
<path d="M148.326 61.9554C149.115 64.617 147.586 66.7364 145.021 66.7364C142.554 66.7364 139.94 64.7155 139.2 62.2511C138.411 59.7374 139.743 57.5687 142.209 57.4209C144.774 57.2237 147.536 59.2938 148.326 61.9554Z" fill="#FFC633"/>
<path d="M145.021 66.9828C142.456 66.9828 139.792 64.9127 138.953 62.3004C138.559 60.9696 138.707 59.6388 139.348 58.6531C139.94 57.7659 140.976 57.2237 142.16 57.1251C144.873 56.928 147.734 59.0474 148.523 61.8568C148.917 63.2369 148.769 64.5677 148.03 65.5534C147.388 66.4899 146.303 66.9828 145.021 66.9828ZM142.505 57.6673C142.406 57.6673 142.308 57.6673 142.258 57.6673C141.222 57.7166 140.335 58.2095 139.841 58.9488C139.249 59.7867 139.151 60.9696 139.496 62.2018C140.236 64.5677 142.752 66.5392 145.07 66.5392C146.204 66.5392 147.142 66.0956 147.734 65.307C148.375 64.4691 148.523 63.2862 148.128 62.054C147.388 59.5896 144.873 57.6673 142.505 57.6673Z" fill="#FF9D00"/>
<path d="M128.989 51.7527C129.779 54.4143 128.249 56.5337 125.684 56.5337C123.218 56.5337 120.604 54.5128 119.864 52.0484C119.075 49.5347 120.407 47.366 122.873 47.2182C125.389 47.021 128.2 49.0418 128.989 51.7527Z" fill="#FFC633"/>
<path d="M125.684 56.7801C123.12 56.7801 120.456 54.71 119.617 52.0977C119.223 50.7669 119.371 49.4361 120.012 48.4504C120.604 47.5632 121.64 47.021 122.824 46.9224C125.537 46.7253 128.397 48.8447 129.187 51.6541C129.581 53.0342 129.433 54.365 128.693 55.3507C128.052 56.2379 126.967 56.7801 125.684 56.7801ZM123.12 47.4153C123.021 47.4153 122.922 47.4153 122.873 47.4153C121.837 47.4646 120.949 47.9575 120.456 48.6968C119.864 49.5347 119.765 50.7176 120.111 51.9499C120.85 54.3157 123.366 56.2872 125.684 56.2872C126.819 56.2872 127.756 55.8436 128.348 55.055C128.989 54.2171 129.137 53.0342 128.743 51.802C128.003 49.3869 125.487 47.4153 123.12 47.4153Z" fill="#FF9D00"/>
<path d="M46.9591 93.7956C46.9097 93.7956 46.8604 93.7956 46.8111 93.7463C46.6631 93.6477 46.6631 93.4999 46.7617 93.352C48.1429 91.3805 50.0666 88.9654 50.0666 88.9654C50.1653 88.8668 50.3626 88.8175 50.4613 88.9161C50.6092 89.0146 50.6092 89.2118 50.5106 89.3104C50.5106 89.3104 48.5868 91.7748 47.2057 93.697C47.1564 93.7463 47.0577 93.7956 46.9591 93.7956Z" fill="#C97C00"/>
<path d="M62.0037 28.9322C62.0037 28.9322 64.3221 32.6288 63.7301 33.7132C63.1875 34.7975 62.497 34.3046 61.4118 34.5018C60.3266 34.7482 59.6853 34.0582 59.8333 33.5653" fill="url(#paint1_linear_111_547)"/>
<path d="M62.497 21.9826C62.497 21.9826 63.6315 21.5883 65.6539 20.849L64.7167 18.7789C64.7167 18.7296 63.6808 20.849 62.497 21.9826Z" fill="#FF9D00"/>
<path d="M49.82 82.2621L36.3045 88.571L37.8829 92.4648L50.9052 85.4659L49.82 82.2621Z" fill="#948BF1"/>
<path d="M37.8829 92.9577C37.6856 92.9577 37.5376 92.8591 37.439 92.7113C37.291 92.4648 37.3896 92.1691 37.6363 92.0705L47.8469 86.6981L50.3132 85.2195L49.524 82.8536L48.7841 83.1001C48.5375 83.1986 48.2415 83.0508 48.1922 82.8043C48.0935 82.5086 37.5376 54.9072 36.0578 52.0484C33.9861 48.0068 31.1745 46.2324 31.1745 46.2324C30.9278 46.0846 30.8785 45.7888 31.0265 45.5424C31.1745 45.2959 31.4704 45.2466 31.7171 45.3945C31.865 45.4931 34.7753 47.3168 36.995 51.6048C38.3762 54.365 47.5509 78.3191 48.9814 82.0157L49.7213 81.7693C49.9679 81.6707 50.2639 81.8186 50.3626 82.065L51.4478 85.2687C51.4971 85.4659 51.4478 85.7123 51.2504 85.8602L48.4388 87.536L38.2282 92.8591C38.0309 92.9084 37.9322 92.9577 37.8829 92.9577Z" fill="#2742D2"/>
<path d="M65.8019 56.2379C65.5552 56.2379 65.3579 56.0408 65.3086 55.7944C65.3086 55.7944 65.0126 53.9214 62.4476 51.7527C60.08 49.7319 58.2055 51.6541 58.1069 51.7034C57.9096 51.9006 57.6136 51.9006 57.4163 51.7034C57.219 51.5063 57.219 51.2105 57.4163 51.0134C57.4656 50.9641 59.9813 48.3518 63.0889 50.9641C65.9992 53.4285 66.2951 55.5479 66.2951 55.6465C66.3445 55.8929 66.1472 56.1394 65.8512 56.1887C65.8019 56.2379 65.8019 56.2379 65.8019 56.2379Z" fill="#2742D2"/>
<path d="M65.9005 82.5579C65.8019 82.5579 65.7032 82.5086 65.6539 82.41C65.6046 82.2622 65.6539 82.1143 65.8019 82.0157C65.8019 82.0157 67.8736 81.0792 69.5014 80.2413C71.0798 79.4034 72.2144 77.6784 72.2144 77.6784C72.313 77.5305 72.461 77.5305 72.609 77.5798C72.757 77.6783 72.757 77.8262 72.7076 77.9741C72.6583 78.0727 71.5238 79.847 69.748 80.7342C68.0709 81.6214 65.9992 82.5086 65.9992 82.5579C65.9992 82.5086 65.9499 82.5579 65.9005 82.5579Z" fill="#C97C00"/>
<path d="M65.1113 79.6992C65.0127 79.6992 64.914 79.6499 64.8647 79.5513C64.766 79.4034 64.8154 79.2556 64.9633 79.157C64.9633 79.157 67.2324 77.8755 68.3176 77.1362C68.4655 77.0376 68.6135 77.0869 68.7122 77.1855C68.8108 77.3333 68.7615 77.4812 68.6628 77.5798C67.5777 78.3684 65.3579 79.6006 65.2593 79.6499C65.21 79.6992 65.1606 79.6992 65.1113 79.6992Z" fill="#C97C00"/>
<path d="M72.165 116.518C72.165 116.518 65.6046 121.348 65.9499 122.679C66.2952 124.009 69.7974 122.925 70.5866 121.939C71.3758 120.953 72.0171 118.637 72.165 116.518Z" fill="#FF9D00"/>
<path d="M77.5909 126.129C77.5909 126.129 84.1021 128.889 82.9675 129.776C81.833 130.663 78.9721 129.431 77.5909 127.952C76.2098 126.474 77.2456 125.981 77.5909 126.129Z" fill="#FF9D00"/>
<path d="M103.192 85.7123C103.192 85.7123 102.748 87.3388 104.77 88.3739L106.201 85.9588V84.8251L103.192 85.7123Z" fill="#FF9D00"/>
<path d="M119.321 90.2469C119.223 90.2469 119.173 90.1976 119.124 90.1483C118.68 89.6554 116.904 88.2753 116.016 87.7332C115.227 87.2403 114.635 87.2896 114.635 87.2896C114.487 87.2896 114.339 87.191 114.339 87.0431C114.339 86.8953 114.438 86.7474 114.586 86.7474C114.635 86.7474 115.326 86.6981 116.312 87.2896C117.2 87.8318 119.025 89.2118 119.568 89.8033C119.667 89.9019 119.667 90.099 119.568 90.1976C119.42 90.1976 119.371 90.2469 119.321 90.2469Z" fill="#C97C00"/>
<path d="M120.061 87.2896C120.012 87.2896 119.963 87.2896 119.913 87.2403C119.864 87.2403 117.25 85.2688 116.46 84.8744C115.77 84.5294 115.079 84.6773 115.079 84.6773C114.931 84.7266 114.783 84.628 114.734 84.4801C114.685 84.3323 114.783 84.1844 114.931 84.1351C114.981 84.1351 115.819 83.938 116.707 84.3816C117.546 84.7759 120.111 86.6981 120.209 86.7967C120.357 86.8953 120.357 87.0924 120.259 87.191C120.209 87.2403 120.111 87.2896 120.061 87.2896Z" fill="#FF9D00"/>
<path d="M118.433 92.5634C118.335 92.5634 118.236 92.5141 118.187 92.4156C118.187 92.4156 117.743 91.5284 116.855 90.9862C116.115 90.5426 114.093 90.9369 113.353 91.0848C113.205 91.1341 113.057 91.0355 113.008 90.8876C112.958 90.7398 113.057 90.5919 113.205 90.5426C113.501 90.444 116.115 89.8526 117.151 90.4933C118.187 91.1341 118.68 92.1198 118.729 92.1691C118.779 92.317 118.729 92.4648 118.581 92.5634C118.532 92.5141 118.483 92.5634 118.433 92.5634Z" fill="#FF9D00"/>
<path d="M117.806 133.659L115.986 134.42L145.586 205.123L147.406 204.362L117.806 133.659Z" fill="white"/>
<path d="M21.2699 148.118L19.477 148.941L51.3694 218.318L53.1623 217.495L21.2699 148.118Z" fill="white"/>
<path d="M61.3625 75.904C61.3625 75.904 60.4746 77.0869 60.9186 77.3333C61.3132 77.5798 62.8423 76.1997 62.8423 76.1997L61.3625 75.904Z" fill="#FF9D00"/>
<path d="M103.142 93.4506H103.093C102.945 93.4013 102.846 93.2534 102.896 93.1056C105.017 84.5787 108.223 83.7408 108.321 83.6915C108.469 83.6422 108.617 83.7408 108.667 83.8887C108.716 84.0365 108.617 84.1844 108.469 84.2337C108.42 84.2337 105.461 85.1209 103.438 93.2041C103.389 93.4013 103.29 93.4506 103.142 93.4506Z" fill="#C97C00"/>
<path d="M107.483 93.5492L107.138 91.6762C106.743 92.662 106.102 94.3378 106.546 94.9293C107.138 95.7672 107.779 95.5207 107.779 95.5207L107.483 93.5492Z" fill="#FF9D00"/>
<path opacity="0.5" d="M171.756 231.606H15.3406C14.946 231.606 14.6007 231.261 14.6007 230.866C14.6007 230.472 14.946 230.127 15.3406 230.127H171.805C172.2 230.127 172.545 230.472 172.545 230.866C172.545 231.261 172.2 231.606 171.756 231.606Z" fill="#007BFF"/>
</g>
<defs>
<linearGradient id="paint0_linear_111_547" x1="67.7343" y1="29.9884" x2="61.7329" y2="29.7416" gradientUnits="userSpaceOnUse">
<stop offset="0.00200123" stop-color="#FFCC99" stop-opacity="0"/>
<stop offset="1" stop-color="#FF9D00"/>
</linearGradient>
<linearGradient id="paint1_linear_111_547" x1="60.7602" y1="31.214" x2="62.9161" y2="34.1113" gradientUnits="userSpaceOnUse">
<stop offset="0.00200123" stop-color="#FFCC99" stop-opacity="0"/>
<stop offset="0.2661" stop-color="#FFD19F" stop-opacity="0.2646"/>
<stop offset="0.6161" stop-color="#FFE0B0" stop-opacity="0.6153"/>
<stop offset="1" stop-color="#FFF7CA"/>
</linearGradient>
<clipPath id="clip0_111_547">
<rect width="172.496" height="232" fill="white"/>
</clipPath>
</defs>
</svg>
