<svg width="10" height="11" viewBox="0 0 10 11" fill="none" xmlns="http://www.w3.org/2000/svg">
<path d="M6.11111 0.5V1.61111H8.10556L2.64444 7.07222L3.42778 7.85556L8.88889 2.39444V4.38889H10V0.5M8.88889 9.38889H1.11111V1.61111H5V0.5H1.11111C0.816426 0.5 0.533811 0.617063 0.325437 0.825437C0.117063 1.03381 0 1.31643 0 1.61111V9.38889C0 9.68357 0.117063 9.96619 0.325437 10.1746C0.533811 10.3829 0.816426 10.5 1.11111 10.5H8.88889C9.18357 10.5 9.46619 10.3829 9.67456 10.1746C9.88294 9.96619 10 9.68357 10 9.38889V5.5H8.88889V9.38889Z" fill="#007BFF"/>
</svg>
