<svg width="14" height="14" viewBox="0 0 14 14" fill="none" xmlns="http://www.w3.org/2000/svg">
<path d="M5.79994 0.502622C2.54155 0.857425 0 3.62344 0 6.98321C0 8.71157 0.686588 10.3691 1.90872 11.5913C3.13086 12.8134 4.78843 13.5 6.51679 13.5C9.86932 13.5 12.6353 10.9657 12.9974 7.7073C13.0625 7.13527 12.4326 6.67909 11.8823 7.01941C11.2912 7.39671 10.6095 7.60819 9.9087 7.63173C9.20785 7.65528 8.51356 7.49001 7.89848 7.15323C7.28339 6.81646 6.77014 6.32055 6.41242 5.7174C6.0547 5.11426 5.86567 4.42606 5.86511 3.72481C5.86511 2.95728 6.08958 2.23319 6.47335 1.6322C6.79918 1.14706 6.44438 0.451936 5.79994 0.502622Z" fill="#D1D1D6"/>
</svg>
