<svg width="10" height="10" viewBox="0 0 10 10" fill="none" xmlns="http://www.w3.org/2000/svg">
<path d="M9.73037 4.32843C9.84249 4.2449 9.92567 4.12838 9.96822 3.99519C10.0108 3.86201 10.0106 3.71885 9.96767 3.58578C9.92476 3.45271 9.84127 3.33641 9.72892 3.25319C9.61658 3.16996 9.481 3.12398 9.3412 3.1217L6.62607 3.01913C6.61272 3.01821 6.59992 3.01344 6.58921 3.00542C6.57851 2.99739 6.57035 2.98643 6.56573 2.97388L5.6275 0.439747C5.58036 0.31082 5.49474 0.199493 5.38223 0.120838C5.26973 0.0421831 5.13577 0 4.99849 0C4.86122 0 4.72726 0.0421831 4.61475 0.120838C4.50224 0.199493 4.41662 0.31082 4.36948 0.439747L3.43427 2.98293C3.42965 2.99548 3.42149 3.00644 3.41079 3.01447C3.40008 3.02249 3.38728 3.02726 3.37393 3.02818L0.658797 3.13075C0.518999 3.13303 0.383421 3.17901 0.271074 3.26224C0.158726 3.34546 0.0752416 3.46176 0.0323274 3.59483C-0.0105869 3.7279 -0.0107795 3.87106 0.0317767 4.00424C0.0743329 4.13743 0.157504 4.25395 0.269627 4.33748L2.3995 6.01181C2.41016 6.0202 2.41813 6.03153 2.42242 6.0444C2.42671 6.05727 2.42713 6.07111 2.42364 6.08422L1.69055 8.6817C1.65256 8.81397 1.65624 8.95473 1.70109 9.08483C1.74594 9.21494 1.82978 9.32807 1.9412 9.40883C2.05263 9.4896 2.18623 9.53408 2.32383 9.53623C2.46143 9.53837 2.59635 9.49807 2.71023 9.42082L4.96078 7.91241C4.97187 7.90475 4.98502 7.90065 4.99849 7.90065C5.01196 7.90065 5.02512 7.90475 5.0362 7.91241L7.28675 9.42082C7.3991 9.50071 7.53353 9.54364 7.67139 9.54364C7.80925 9.54364 7.94369 9.50071 8.05604 9.42082C8.16749 9.34081 8.25141 9.22824 8.29625 9.09858C8.34109 8.96892 8.34465 8.82855 8.30643 8.69678L7.56731 6.09025C7.5634 6.07717 7.56361 6.06319 7.56793 6.05023C7.57225 6.03727 7.58046 6.02596 7.59145 6.01785L9.73037 4.32843Z" fill="#007BFF"/>
</svg>
