<svg width="13" height="14" viewBox="0 0 13 14" fill="none" xmlns="http://www.w3.org/2000/svg">
<path d="M6.03669 0.5H6.96526V2.82143H6.03669V0.5ZM9.14183 3.70357L10.7696 2.07579L11.4261 2.73229L9.79833 4.36007L9.14183 3.70357ZM10.6795 6.53571H13.001V7.46429H10.6795V6.53571ZM9.14183 10.2964L9.79833 9.64039L11.4261 11.2682L10.7696 11.9247L9.14183 10.2964ZM6.03669 11.1786H6.96526V13.5H6.03669V11.1786ZM1.57676 11.2677L3.20455 9.63993L3.86105 10.2964L2.23373 11.9242L1.57676 11.2677ZM0.000976562 6.53571H2.32241V7.46429H0.000976562V6.53571ZM1.57723 2.73229L2.23373 2.07579L3.86151 3.70357L3.20455 4.36007L1.57723 2.73229ZM6.50098 4.21429C5.95001 4.21429 5.41142 4.37767 4.95332 4.68376C4.49521 4.98986 4.13816 5.42493 3.92731 5.93395C3.71647 6.44298 3.6613 7.00309 3.76879 7.54347C3.87628 8.08384 4.14159 8.58021 4.53118 8.9698C4.92077 9.35939 5.41713 9.6247 5.95751 9.73219C6.49789 9.83967 7.058 9.78451 7.56702 9.57366C8.07605 9.36282 8.51112 9.00577 8.81721 8.54766C9.12331 8.08955 9.28669 7.55096 9.28669 7C9.28669 6.26118 8.9932 5.55263 8.47077 5.0302C7.94835 4.50778 7.23979 4.21429 6.50098 4.21429Z" fill="#D1D1D6"/>
</svg>
