<svg width="13" height="15" viewBox="0 0 13 15" fill="none" xmlns="http://www.w3.org/2000/svg">
<path d="M12.8571 12.1429V12.8571H0V12.1429L1.42857 10.7143V6.42857C1.42857 4.21429 2.87857 2.26429 5 1.63571V1.42857C5 1.04969 5.15051 0.686328 5.41842 0.418419C5.68633 0.15051 6.04969 0 6.42857 0C6.80745 0 7.17081 0.15051 7.43872 0.418419C7.70663 0.686328 7.85714 1.04969 7.85714 1.42857V1.63571C9.97857 2.26429 11.4286 4.21429 11.4286 6.42857V10.7143L12.8571 12.1429ZM7.85714 13.5714C7.85714 13.9503 7.70663 14.3137 7.43872 14.5816C7.17081 14.8495 6.80745 15 6.42857 15C6.04969 15 5.68633 14.8495 5.41842 14.5816C5.15051 14.3137 5 13.9503 5 13.5714" fill="#D1D1D6"/>
</svg>
