<svg width="14" height="14" viewBox="0 0 14 14" fill="none" xmlns="http://www.w3.org/2000/svg">
<path d="M7.35913 0.5C8.22108 0.5 9.04774 0.84241 9.65723 1.4519C10.2667 2.0614 10.6091 2.88805 10.6091 3.75C10.6091 4.61195 10.2667 5.4386 9.65723 6.0481C9.04774 6.65759 8.22108 7 7.35913 7C6.49718 7 5.67053 6.65759 5.06103 6.0481C4.45154 5.4386 4.10913 4.61195 4.10913 3.75C4.10913 2.88805 4.45154 2.0614 5.06103 1.4519C5.67053 0.84241 6.49718 0.5 7.35913 0.5ZM7.35913 8.625C10.9504 8.625 13.8591 10.0794 13.8591 11.875V13.5H0.859131V11.875C0.859131 10.0794 3.76788 8.625 7.35913 8.625Z" fill="#D1D1D6"/>
</svg>
