<svg width="210" height="179" viewBox="0 0 210 179" fill="none" xmlns="http://www.w3.org/2000/svg">
<g clip-path="url(#clip0_655_2827)">
<path opacity="0.05" d="M209.037 123.383C203.304 94.4726 169.716 71.3666 163.165 41.2401C151.258 2.91106 112.013 -3.14884 86.5113 13.4974C46.1031 39.8737 89.2103 46.4192 9.98291 108.824C-9.58011 124.233 -3.34645 192.252 58.1977 176.642C91.318 168.241 101.386 167.062 116.284 165.679C153.834 162.192 218.661 171.912 209.037 123.383Z" fill="#007BFF"/>
<path d="M164.179 130.629L106.141 161.281L48.1914 130.629V84.3408L106.185 113.5L164.179 84.3408V130.629Z" fill="white"/>
<path d="M106.141 161.751C106.065 161.752 105.989 161.733 105.921 161.697L47.9731 131.044C47.8978 131.004 47.8347 130.945 47.7906 130.872C47.7464 130.799 47.723 130.715 47.7227 130.63V84.3407C47.7227 84.2161 47.7722 84.0965 47.8604 84.0083C47.9485 83.9201 48.0681 83.8706 48.1928 83.8706L48.6614 84.8109V130.346L106.141 160.75L163.709 130.345V84.8109L164.179 83.8706C164.304 83.8706 164.423 83.9201 164.511 84.0083C164.6 84.0965 164.649 84.2161 164.649 84.3407V130.629C164.649 130.714 164.625 130.797 164.581 130.87C164.537 130.943 164.474 131.003 164.399 131.042L106.361 161.695C106.293 161.732 106.218 161.751 106.141 161.751Z" fill="#1F263F"/>
<path d="M164.179 74.4082L106.141 43.7556L132.221 31.1848L190.259 61.8378L164.179 74.4082Z" fill="white"/>
<path d="M164.179 74.8782C164.103 74.8782 164.027 74.8596 163.959 74.824L105.922 44.171C105.845 44.1303 105.781 44.0691 105.737 43.9941C105.692 43.9192 105.67 43.8335 105.671 43.7465C105.673 43.6595 105.699 43.5747 105.746 43.5014C105.793 43.4282 105.859 43.3694 105.937 43.3315L132.017 30.7608C132.083 30.7286 132.156 30.7126 132.23 30.7139C132.304 30.7153 132.376 30.7341 132.441 30.7687L190.479 61.4217C190.555 61.4623 190.62 61.5235 190.664 61.5984C190.708 61.6733 190.731 61.759 190.729 61.846C190.727 61.9329 190.702 62.0178 190.655 62.091C190.608 62.1642 190.542 62.223 190.463 62.2608L164.383 74.8315C164.32 74.8623 164.25 74.8782 164.179 74.8782ZM107.184 43.7738L164.189 73.8807L189.216 61.8177L132.212 31.7116L107.184 43.7738Z" fill="#262626"/>
<path d="M48.1912 74.4082L106.229 43.7556L80.149 31.1848L22.1113 61.8378L48.1912 74.4082Z" fill="white"/>
<path d="M48.1911 74.8782C48.1204 74.8782 48.0505 74.8623 47.9868 74.8315L21.9085 62.2608C21.8301 62.223 21.7638 62.1642 21.7169 62.091C21.6699 62.0178 21.6443 61.9329 21.6427 61.846C21.6411 61.759 21.6636 61.6733 21.7078 61.5984C21.752 61.5235 21.8161 61.4623 21.893 61.4217L79.9307 30.7687C79.9957 30.7341 80.068 30.7153 80.1417 30.7139C80.2153 30.7126 80.2883 30.7286 80.3546 30.7608L106.434 43.3315C106.513 43.3694 106.579 43.4282 106.626 43.5014C106.673 43.5747 106.699 43.6595 106.7 43.7465C106.702 43.8335 106.679 43.9192 106.635 43.9941C106.591 44.0691 106.527 44.1303 106.45 44.171L48.4122 74.824C48.344 74.8599 48.2681 74.8785 48.1911 74.8782ZM23.1541 61.8185L48.1813 73.8815L105.186 43.7746L80.1586 31.7116L23.1541 61.8185Z" fill="#262626"/>
<path d="M48.1916 74.4082L106.229 105.061L76.3882 121.393L18.3506 90.7401L48.1916 74.4082Z" fill="white"/>
<path d="M76.388 121.863C76.3114 121.863 76.236 121.844 76.1684 121.808L18.1307 91.1551C18.0558 91.1153 17.993 91.0561 17.949 90.9836C17.905 90.911 17.8815 90.828 17.8809 90.7432C17.8803 90.6583 17.9026 90.5749 17.9455 90.5018C17.9884 90.4286 18.0504 90.3685 18.1247 90.3276L47.9657 73.9958C48.0339 73.9584 48.1103 73.9385 48.188 73.938C48.2657 73.9375 48.3424 73.9563 48.411 73.9928L106.449 104.646C106.524 104.686 106.586 104.745 106.63 104.817C106.674 104.89 106.698 104.973 106.699 105.058C106.699 105.143 106.677 105.226 106.634 105.299C106.591 105.372 106.529 105.432 106.455 105.473L76.6137 121.805C76.5445 121.843 76.4669 121.863 76.388 121.863ZM19.3433 90.7323L76.3839 120.859L105.236 105.068L48.1955 74.9417L19.3433 90.7323Z" fill="#262626"/>
<path d="M164.179 74.4082L106.141 105.061L135.982 121.393L194.02 90.7401L164.179 74.4082Z" fill="white"/>
<path d="M135.983 121.863C135.904 121.863 135.826 121.843 135.757 121.805L105.916 105.473C105.842 105.432 105.78 105.372 105.737 105.299C105.694 105.226 105.672 105.143 105.672 105.058C105.673 104.973 105.697 104.89 105.741 104.817C105.785 104.745 105.847 104.686 105.922 104.646L163.96 73.9928C164.029 73.9563 164.105 73.9375 164.183 73.938C164.261 73.9385 164.337 73.9584 164.405 73.9958L194.246 90.3276C194.321 90.3685 194.382 90.4286 194.425 90.5018C194.468 90.5749 194.491 90.6583 194.49 90.7432C194.489 90.828 194.466 90.911 194.422 90.9836C194.378 91.0561 194.315 91.1153 194.24 91.1551L136.203 121.808C136.135 121.844 136.059 121.863 135.983 121.863ZM107.135 105.068L135.987 120.859L193.028 90.7323L164.176 74.9417L107.135 105.068Z" fill="#262626"/>
<path opacity="0.4" d="M106.229 43.7556L48.1914 74.4083L106.141 105.061L164.179 74.4083L106.229 43.7556Z" fill="#1F263F"/>
<path d="M106.612 105.061H105.671V161.281H106.612V105.061Z" fill="#262626"/>
<path d="M73.6233 71.625C73.5455 71.6251 73.4696 71.6008 73.4063 71.5555C73.3249 71.4978 73.2698 71.4102 73.253 71.3118C73.2362 71.2135 73.2591 71.1126 73.3168 71.0312C73.3864 70.933 80.1838 61.106 72.5954 52.147C71.2523 50.5531 69.5769 49.2722 67.6866 48.3941C65.7963 47.5159 63.7368 47.0618 61.6525 47.0635H61.5502C62.2708 49.5669 62.1422 51.7927 61.1218 53.5003C60.687 54.2719 60.0454 54.9067 59.2693 55.3333C58.4931 55.76 57.6133 55.9614 56.7288 55.9149C55.9967 55.8549 55.2979 55.5828 54.7182 55.1317C54.1384 54.6806 53.7027 54.0703 53.4645 53.3754C52.63 51.1985 53.5022 49.0877 55.8009 47.7273C57.2572 46.9243 58.8754 46.4588 60.5358 46.3654C59.9957 44.9333 59.2933 43.5678 58.4424 42.2956C55.7024 38.1109 50.7088 35.2141 44.7414 34.348C39.6842 33.6142 34.8377 34.4785 32.3926 36.5493C32.3164 36.6138 32.2178 36.6453 32.1183 36.637C32.0189 36.6287 31.9269 36.5813 31.8624 36.5051C31.798 36.429 31.7665 36.3303 31.7747 36.2309C31.783 36.1315 31.8305 36.0394 31.9066 35.975C34.5086 33.7714 39.5887 32.8397 44.8494 33.6055C51.03 34.5029 56.2135 37.5204 59.072 41.8852C59.9987 43.2695 60.7525 44.7619 61.3166 46.3293C63.5651 46.2753 65.797 46.7264 67.848 47.6495C69.899 48.5725 71.7168 49.9438 73.1675 51.6626C81.1384 61.0725 74.0013 71.3651 73.9284 71.4682C73.8936 71.5167 73.8478 71.5561 73.7948 71.5834C73.7417 71.6107 73.683 71.625 73.6233 71.625ZM60.7799 47.091C59.1701 47.1596 57.5978 47.599 56.1857 48.375C54.2013 49.5492 53.4664 51.2741 54.1686 53.1065C54.3589 53.6679 54.7087 54.1618 55.1752 54.5276C55.6417 54.8934 56.2047 55.1152 56.7954 55.1661C57.5391 55.1994 58.2773 55.0252 58.9277 54.6629C59.578 54.3006 60.1148 53.7646 60.4779 53.1147C61.4144 51.5464 61.5002 49.4616 60.7788 47.091H60.7799Z" fill="#292A2E"/>
<path d="M25.9013 42.6132C25.2621 42.8052 24.5733 42.7401 23.9814 42.4318C23.3895 42.1235 22.9414 41.5964 22.7324 40.9626C22.5233 40.3288 22.57 39.6385 22.8624 39.0386C23.1548 38.4386 23.6698 37.9766 24.2978 37.7507C24.9257 37.5249 25.6171 37.5531 26.2246 37.8293C26.8321 38.1056 27.3077 38.6081 27.5503 39.2298C27.7928 39.8516 27.7831 40.5434 27.5231 41.1581C27.2632 41.7727 26.7736 42.2616 26.1585 42.5207C26.0745 42.5562 25.9887 42.5871 25.9013 42.6132ZM24.6507 38.4339C24.5898 38.4522 24.5299 38.4738 24.4713 38.4985C24.0386 38.681 23.6941 39.0252 23.5114 39.4579C23.3287 39.8905 23.3221 40.3774 23.493 40.8148C23.664 41.2523 23.999 41.6057 24.4266 41.7998C24.8543 41.9939 25.3408 42.0134 25.7826 41.854C26.2244 41.6947 26.5866 41.3692 26.7919 40.9469C26.9973 40.5245 27.0296 40.0386 26.8821 39.5928C26.7345 39.1469 26.4187 38.7763 26.0019 38.5598C25.5852 38.3433 25.1003 38.2982 24.6507 38.4339Z" fill="#292A2E"/>
<path d="M25.8967 36.7197C25.2921 36.9002 24.6421 36.8509 24.0717 36.5812C23.5013 36.3114 23.0507 35.8404 22.8066 35.2585C22.6109 34.7921 22.5579 34.278 22.6543 33.7814C22.7508 33.2849 22.9923 32.828 23.3484 32.4687C23.7044 32.1094 24.1591 31.8638 24.6548 31.7628C25.1504 31.6619 25.6649 31.7103 26.1331 31.9018C26.6014 32.0933 27.0023 32.4193 27.2852 32.8387C27.5681 33.258 27.7203 33.7518 27.7225 34.2577C27.7247 34.7636 27.5769 35.2587 27.2977 35.6805C27.0185 36.1024 26.6205 36.4319 26.154 36.6276C26.0699 36.6627 25.984 36.6935 25.8967 36.7197ZM24.6477 32.54C24.586 32.5585 24.5254 32.5802 24.466 32.6051C24.0248 32.7904 23.6752 33.1433 23.4941 33.5863C23.313 34.0293 23.3152 34.526 23.5002 34.9674C23.6351 35.2891 23.8603 35.5649 24.1487 35.7613C24.437 35.9577 24.7761 36.0664 25.1249 36.0741C25.4737 36.0819 25.8173 35.9884 26.1141 35.805C26.4108 35.6216 26.6481 35.3561 26.7972 35.0407C26.9463 34.7253 27.0008 34.3734 26.9541 34.0277C26.9074 33.6819 26.7616 33.3571 26.5342 33.0925C26.3068 32.8279 26.0076 32.6349 25.6728 32.5368C25.338 32.4387 24.9819 32.4396 24.6477 32.5396V32.54Z" fill="#292A2E"/>
<path d="M25.1666 39.3796C27.0137 39.3796 28.511 38.3795 28.511 37.1458C28.511 35.9122 27.0137 34.9121 25.1666 34.9121C23.3196 34.9121 21.8223 35.9122 21.8223 37.1458C21.8223 38.3795 23.3196 39.3796 25.1666 39.3796Z" fill="white"/>
<path d="M26.6473 39.5439C26.1678 39.6856 25.6703 39.7571 25.1703 39.7561C23.0836 39.7561 21.4468 38.6127 21.4468 37.1492C21.4468 35.6858 23.0787 34.5383 25.1646 34.536C26.0741 34.5186 26.9688 34.7669 27.7391 35.2506C28.0851 35.4309 28.375 35.7025 28.5775 36.0359C28.78 36.3693 28.8872 36.7519 28.8876 37.142C28.8879 37.5321 28.7814 37.9148 28.5795 38.2487C28.3776 38.5825 28.0881 38.8546 27.7425 39.0354C27.4046 39.2582 27.0355 39.4296 26.6473 39.5439ZM23.9159 35.4673C22.911 35.7682 22.1986 36.4177 22.199 37.1474C22.199 38.1542 23.5594 39.0038 25.1703 39.0023C25.9312 39.0183 26.6803 38.8124 27.3261 38.4096C27.5683 38.298 27.7735 38.1193 27.9172 37.8947C28.0609 37.6701 28.1371 37.409 28.1369 37.1423C28.1367 36.8756 28.0599 36.6147 27.9158 36.3903C27.7717 36.1659 27.5663 35.9876 27.3239 35.8765C26.6776 35.4745 25.9281 35.2698 25.1673 35.2875C24.7436 35.2864 24.3221 35.3469 23.9159 35.4673Z" fill="#292A2E"/>
<path d="M25.9867 39.3115L25.9077 34.9675L24.8276 34.9238L24.752 39.3623L25.9867 39.3115Z" fill="#292A2E"/>
<path d="M20.73 38.0909C20.9207 38.0909 21.0753 37.9363 21.0753 37.7457C21.0753 37.555 20.9207 37.4004 20.73 37.4004C20.5393 37.4004 20.3848 37.555 20.3848 37.7457C20.3848 37.9363 20.5393 38.0909 20.73 38.0909Z" fill="#292A2E"/>
<path d="M20.9996 36.2435C21.1903 36.2435 21.3448 36.0889 21.3448 35.8982C21.3448 35.7076 21.1903 35.553 20.9996 35.553C20.8089 35.553 20.6543 35.7076 20.6543 35.8982C20.6543 36.0889 20.8089 36.2435 20.9996 36.2435Z" fill="#292A2E"/>
<path d="M132.721 49.9348C132.64 49.9348 132.562 49.909 132.497 49.8611C132.432 49.8133 132.385 49.7459 132.361 49.6689C131.114 45.0103 130.781 40.1541 131.381 35.3688C132.353 28.3731 136.211 19.1919 149.07 15.1717C150.879 14.59 152.734 14.1645 154.616 13.9C155.222 10.116 157.527 6.01111 162.682 3.17899C174.929 -3.55038 183.201 2.48732 183.283 2.54901C183.363 2.60886 183.416 2.69796 183.43 2.7967C183.444 2.89545 183.418 2.99576 183.358 3.07556C183.299 3.15536 183.209 3.20812 183.111 3.22223C183.012 3.23633 182.912 3.21063 182.832 3.15078C182.754 3.09211 174.848 -2.64772 163.044 3.83869C158.228 6.48538 156.023 10.2841 155.396 13.8105C161.067 13.252 163.783 15.1438 165.002 16.5727C165.756 17.4319 166.241 18.4941 166.396 19.6268C166.551 20.7596 166.369 21.9128 165.873 22.9429C165.481 23.7754 164.845 24.4695 164.051 24.9334C163.256 25.3974 162.339 25.6094 161.421 25.5414C158.254 25.3556 155.633 22.6912 154.745 18.7534C154.452 17.4203 154.374 16.049 154.514 14.6914C152.744 14.9457 150.998 15.3471 149.294 15.8915C139.273 19.0249 133.498 25.614 132.126 35.4745C131.538 40.1512 131.862 44.8974 133.08 49.4508C133.098 49.507 133.101 49.5665 133.091 49.6245C133.081 49.6824 133.058 49.7373 133.023 49.7846C132.988 49.8319 132.943 49.8703 132.89 49.8968C132.838 49.9233 132.78 49.9371 132.721 49.9371V49.9348ZM155.281 14.5973C155.124 15.9291 155.191 17.2777 155.478 18.5875C156.291 22.1899 158.641 24.6245 161.465 24.7903C162.235 24.8455 163.004 24.6667 163.67 24.2774C164.336 23.8881 164.869 23.3065 165.199 22.6089C165.629 21.7106 165.786 20.7058 165.649 19.7194C165.512 18.733 165.088 17.8087 164.429 17.0616C162.67 14.9979 159.461 14.1644 155.281 14.5973Z" fill="#292A2E"/>
<path d="M192.044 6.35014C191.538 6.34908 191.042 6.2048 190.614 5.93394C190.186 5.66308 189.843 5.2767 189.625 4.81937C189.407 4.36205 189.323 3.85244 189.382 3.34934C189.442 2.84625 189.642 2.37019 189.96 1.97611C190.279 1.58203 190.702 1.28598 191.181 1.12215C191.661 0.958312 192.176 0.933363 192.669 1.05018C193.162 1.167 193.612 1.42082 193.967 1.78235C194.322 2.14388 194.567 2.59838 194.675 3.0934C194.759 3.48581 194.755 3.8921 194.662 4.28252C194.569 4.67295 194.389 5.03763 194.137 5.34986C193.885 5.66209 193.566 5.91396 193.204 6.08704C192.842 6.26011 192.446 6.35001 192.044 6.35014ZM192.05 1.73C191.65 1.72999 191.26 1.85406 190.933 2.0851C190.607 2.31615 190.36 2.64279 190.227 3.02002C190.093 3.39725 190.081 3.80649 190.19 4.19134C190.299 4.57619 190.525 4.9177 190.836 5.1688C191.148 5.4199 191.529 5.56824 191.929 5.59335C192.328 5.61847 192.725 5.51914 193.065 5.30905C193.406 5.09896 193.673 4.78845 193.829 4.42032C193.986 4.05219 194.024 3.64457 193.94 3.25362C193.848 2.82109 193.61 2.43338 193.266 2.15585C192.921 1.87831 192.492 1.72791 192.05 1.73Z" fill="#292A2E"/>
<path d="M190.912 12.4887C190.222 12.4887 189.559 12.2244 189.059 11.7502C188.559 11.276 188.259 10.628 188.222 9.93965C188.185 9.2513 188.413 8.57495 188.86 8.04984C189.307 7.52474 189.938 7.19084 190.623 7.11687C191.308 7.04291 191.996 7.23453 192.544 7.65226C193.093 8.07 193.46 8.68206 193.571 9.36246C193.681 10.0429 193.527 10.7398 193.139 11.3098C192.752 11.8799 192.16 12.2796 191.487 12.4267C191.298 12.4679 191.105 12.4887 190.912 12.4887ZM190.921 7.86822C190.782 7.86828 190.643 7.88328 190.507 7.91297C190.027 8.01849 189.605 8.30413 189.329 8.71113C189.053 9.11812 188.943 9.61551 189.022 10.101C189.102 10.5864 189.364 11.023 189.756 11.3209C190.147 11.6188 190.638 11.7553 191.127 11.7024C191.616 11.6495 192.066 11.4112 192.385 11.0365C192.703 10.6618 192.866 10.1792 192.84 9.68799C192.813 9.1968 192.6 8.73439 192.243 8.39589C191.886 8.05739 191.413 7.86854 190.921 7.86822Z" fill="#292A2E"/>
<path d="M194.951 7.44919C195.188 6.16452 193.821 4.83537 191.898 4.48044C189.974 4.12552 188.223 4.87924 187.986 6.1639C187.749 7.44856 189.116 8.77771 191.039 9.13263C192.963 9.48756 194.714 8.73385 194.951 7.44919Z" fill="white"/>
<path d="M191.986 9.59696C191.646 9.59641 191.306 9.56494 190.971 9.50293C190.025 9.346 189.145 8.91648 188.44 8.26703C188.131 8.00361 187.894 7.6666 187.75 7.28715C187.606 6.90771 187.56 6.49807 187.616 6.09612C187.707 5.70061 187.896 5.33442 188.166 5.03138C188.436 4.72833 188.778 4.49821 189.161 4.36225C190.055 4.02434 191.025 3.93747 191.966 4.11102C192.906 4.28457 193.781 4.71194 194.497 5.34691C194.805 5.61033 195.043 5.94734 195.187 6.32678C195.331 6.70623 195.377 7.11586 195.321 7.51782C195.23 7.91333 195.04 8.27952 194.77 8.58256C194.5 8.88561 194.158 9.11573 193.776 9.25169C193.209 9.48639 192.6 9.60384 191.986 9.59696ZM190.948 4.76845C190.437 4.76195 189.93 4.8588 189.458 5.05317C189.191 5.14262 188.95 5.29733 188.757 5.50328C188.565 5.70923 188.427 5.95992 188.356 6.23265C188.325 6.5128 188.364 6.79622 188.471 7.05727C188.577 7.31832 188.747 7.54874 188.964 7.72769C189.573 8.25868 190.313 8.61621 191.107 8.76278C191.901 8.90936 192.72 8.83958 193.478 8.56077C193.745 8.47131 193.986 8.31661 194.178 8.11066C194.371 7.90471 194.509 7.65402 194.58 7.38129C194.611 7.10113 194.571 6.81763 194.465 6.55655C194.359 6.29547 194.189 6.06506 193.971 5.88625C193.372 5.34005 192.627 4.98023 191.827 4.85082C191.538 4.79687 191.244 4.7693 190.949 4.76845H190.948Z" fill="#292A2E"/>
<path d="M191.034 4.3938L190.278 8.93195L191.394 9.1862L192.33 4.57922L191.034 4.3938Z" fill="#292A2E"/>
<path d="M195.568 9.27608C195.77 9.27608 195.934 9.11241 195.934 8.9105C195.934 8.7086 195.77 8.54492 195.568 8.54492C195.366 8.54492 195.203 8.7086 195.203 8.9105C195.203 9.11241 195.366 9.27608 195.568 9.27608Z" fill="#292A2E"/>
<path d="M196.205 7.4045C196.407 7.4045 196.571 7.24082 196.571 7.03892C196.571 6.83702 196.407 6.67334 196.205 6.67334C196.004 6.67334 195.84 6.83702 195.84 7.03892C195.84 7.24082 196.004 7.4045 196.205 7.4045Z" fill="#292A2E"/>
</g>
<defs>
<clipPath id="clip0_655_2827">
<rect width="209.906" height="178.953" fill="white" transform="translate(0.0947266)"/>
</clipPath>
</defs>
</svg>
