<svg width="109" height="100" viewBox="0 0 109 100" fill="none" xmlns="http://www.w3.org/2000/svg">
<path opacity="0.1" d="M1.67011 79.4291C5.32106 73.6923 27.4618 69.7299 40.3371 73.6923C47.0672 75.7627 53.2001 79.3831 60.0944 80.9231C69.0094 82.9142 78.3324 81.263 87.4999 80.9912C127.517 79.8002 101.702 96.6149 75.8693 98.9925C32.8517 102.952 9.18191 94.1336 6.37403 91.6043C3.56614 89.075 -1.98084 85.166 1.67011 79.4291Z" fill="#35C85A"/>
<path opacity="0.1" d="M76.3203 17.3438H73.3426C72.6036 17.3438 71.8949 17.0368 71.3723 16.4903C70.8497 15.9438 70.5562 15.2025 70.5562 14.4296V8.93613C67.3947 10.7789 61.5677 12.9582 52.0445 12.5017C46.6252 12.2425 42.3123 11.1561 39.1098 9.96253C37.9837 9.54471 36.8792 9.0655 35.8009 8.52686V14.4296C35.8009 15.2025 35.5073 15.9438 34.9847 16.4903C34.4622 17.0368 33.7534 17.3438 33.0144 17.3438H30.0363C28.567 17.3439 27.1578 17.9544 26.1188 19.041C25.0798 20.1277 24.4962 21.6015 24.4962 23.1382V86.0225C24.4962 87.2623 24.9671 88.4514 25.8054 89.3281C30.4315 94.1663 43.876 94.961 52.7908 94.961C62.4807 94.961 72.4461 93.2246 79.1012 90.3415C79.6436 90.1066 80.1363 89.7622 80.5514 89.3281C80.9664 88.894 81.2957 88.3787 81.5203 87.8115C81.7449 87.2443 81.8605 86.6364 81.8605 86.0225V23.1375C81.8603 21.6009 81.2766 20.1273 80.2376 19.0408C79.1986 17.9543 77.7896 17.3439 76.3203 17.3438Z" fill="#007BFF"/>
<path d="M67.1921 10.0443C64.0038 11.1805 59.7102 12.2146 54.3151 12.4614C53.9323 12.479 52.4404 12.479 52.0574 12.4614C46.6623 12.2146 42.3687 11.1805 39.1806 10.0443C38.0595 9.64663 36.9599 9.19046 35.8865 8.67773V13.6363C39.3866 15.2008 44.5451 16.6 51.7922 16.6H54.5805C61.8276 16.6 66.9861 15.2008 70.4862 13.6363V8.67773C69.4128 9.19043 68.3132 9.64659 67.1921 10.0443Z" fill="#C1D8ED"/>
<path d="M70.4862 7.35986V9.95031C67.3389 11.7045 61.538 13.7789 52.0574 13.3444C46.6623 13.0976 42.3687 12.0635 39.1806 10.9273C38.0595 10.5296 36.9599 10.0735 35.8865 9.56072V7.35986H70.4862Z" fill="#DEE8F5"/>
<path d="M51.5943 82.5298H32.8328C31.9328 82.5298 31.2032 83.2593 31.2032 84.1593V85.8736C31.2032 86.7736 31.9328 87.5031 32.8328 87.5031H51.5943C52.4943 87.5031 53.2238 86.7736 53.2238 85.8736V84.1593C53.2238 83.2593 52.4943 82.5298 51.5943 82.5298Z" fill="#35C85A"/>
<path d="M48.6734 77.5566H29.9118C29.0118 77.5566 28.2823 78.2862 28.2823 79.1862V80.9005C28.2823 81.8004 29.0118 82.53 29.9118 82.53H48.6734C49.5733 82.53 50.3029 81.8004 50.3029 80.9005V79.1862C50.3029 78.2862 49.5733 77.5566 48.6734 77.5566Z" fill="#35C85A"/>
<path d="M51.5943 72.583H32.8328C31.9328 72.583 31.2032 73.3126 31.2032 74.2125V75.9268C31.2032 76.8268 31.9328 77.5564 32.8328 77.5564H51.5943C52.4943 77.5564 53.2238 76.8268 53.2238 75.9268V74.2125C53.2238 73.3126 52.4943 72.583 51.5943 72.583Z" fill="#35C85A"/>
<path d="M50.1338 67.6997H31.3723C30.4723 67.6997 29.7427 68.4293 29.7427 69.3292V71.0435C29.7427 71.9435 30.4723 72.6731 31.3723 72.6731H50.1338C51.0338 72.6731 51.7633 71.9435 51.7633 71.0435V69.3292C51.7633 68.4293 51.0338 67.6997 50.1338 67.6997Z" fill="#35C85A"/>
<path d="M47.2129 62.7261H28.4513C27.5513 62.7261 26.8218 63.4556 26.8218 64.3556V66.0699C26.8218 66.9699 27.5513 67.6994 28.4513 67.6994H47.2129C48.1128 67.6994 48.8424 66.9699 48.8424 66.0699V64.3556C48.8424 63.4556 48.1128 62.7261 47.2129 62.7261Z" fill="#35C85A"/>
<path d="M50.1338 57.7534H31.3723C30.4723 57.7534 29.7427 58.483 29.7427 59.3829V61.0972C29.7427 61.9972 30.4723 62.7268 31.3723 62.7268H50.1338C51.0338 62.7268 51.7633 61.9972 51.7633 61.0972V59.3829C51.7633 58.483 51.0338 57.7534 50.1338 57.7534Z" fill="#35C85A"/>
<path d="M53.0548 52.7466H34.2932C33.3933 52.7466 32.6637 53.4761 32.6637 54.3761V56.0904C32.6637 56.9904 33.3933 57.7199 34.2932 57.7199H53.0548C53.9547 57.7199 54.6843 56.9904 54.6843 56.0904V54.3761C54.6843 53.4761 53.9547 52.7466 53.0548 52.7466Z" fill="#35C85A"/>
<path d="M50.1337 47.7729H31.3722C30.4722 47.7729 29.7427 48.5025 29.7427 49.4025V51.1168C29.7427 52.0167 30.4722 52.7463 31.3722 52.7463H50.1337C51.0337 52.7463 51.7633 52.0167 51.7633 51.1168V49.4025C51.7633 48.5025 51.0337 47.7729 50.1337 47.7729Z" fill="#35C85A"/>
<path d="M53.0548 42.958H34.2932C33.3933 42.958 32.6637 43.6876 32.6637 44.5875V46.3018C32.6637 47.2018 33.3933 47.9314 34.2932 47.9314H53.0548C53.9547 47.9314 54.6843 47.2018 54.6843 46.3018V44.5875C54.6843 43.6876 53.9547 42.958 53.0548 42.958Z" fill="#35C85A"/>
<path d="M58.2232 37.9844H39.4616C38.5616 37.9844 37.8321 38.7139 37.8321 39.6139V41.3282C37.8321 42.2282 38.5616 42.9577 39.4616 42.9577H58.2232C59.1231 42.9577 59.8527 42.2282 59.8527 41.3282V39.6139C59.8527 38.7139 59.1231 37.9844 58.2232 37.9844Z" fill="#35C85A"/>
<path d="M66.9676 87.1285C73.3105 87.1285 78.4525 81.9865 78.4525 75.6436C78.4525 69.3007 73.3105 64.1587 66.9676 64.1587C60.6246 64.1587 55.4827 69.3007 55.4827 75.6436C55.4827 81.9865 60.6246 87.1285 66.9676 87.1285Z" fill="#35C85A"/>
<g opacity="0.29">
<path d="M66.7442 83.721C71.2396 83.721 74.8837 80.0768 74.8837 75.5814C74.8837 71.0861 71.2396 67.4419 66.7442 67.4419C62.2489 67.4419 58.6047 71.0861 58.6047 75.5814C58.6047 80.0768 62.2489 83.721 66.7442 83.721Z" fill="white"/>
</g>
<path d="M63.364 75.8012L64.6166 75.5308C64.7075 76.2183 64.8959 76.7108 65.258 77.073C65.692 77.5069 66.0629 77.5179 66.4115 77.1687C67.1994 76.3808 65.1639 74.374 66.5455 72.992C67.4337 72.1037 68.6149 72.1533 69.5852 73.1235C69.8647 73.3951 70.0818 73.7242 70.2214 74.0881C70.361 74.452 70.4196 74.842 70.3933 75.2308L69.1847 75.3128C69.1597 74.7814 69.0569 74.412 68.7372 74.0923C68.3687 73.724 68.0204 73.6727 67.6764 74.0167C66.9461 74.7469 69.0312 76.7045 67.5675 78.1683C66.6883 79.0475 65.4703 79.1016 64.3494 77.9807C63.7823 77.3877 63.4346 76.6188 63.364 75.8012ZM69.9104 71.9482L70.6569 72.6948L69.5542 73.7975L68.8076 73.051L69.9104 71.9482ZM64.5732 77.2857L65.3197 78.0322L64.1097 79.2423L63.3632 78.4958L64.5732 77.2857Z" fill="white"/>
<path d="M71.4725 60.2091L56.6775 48.672C55.9678 48.1186 54.9439 48.2452 54.3905 48.9549L53.3363 50.3068C52.7829 51.0165 52.9096 52.0404 53.6192 52.5938L68.4142 64.1309C69.1239 64.6843 70.1479 64.5577 70.7013 63.848L71.7555 62.4961C72.3089 61.7864 72.1822 60.7625 71.4725 60.2091Z" fill="#35C85A"/>
<path d="M78.0171 59.0054L63.2221 47.4684C62.5124 46.9149 61.4885 47.0416 60.9351 47.7513L59.8809 49.1032C59.3275 49.8129 59.4542 50.8368 60.1639 51.3902L74.9588 62.9273C75.6685 63.4807 76.6925 63.354 77.2459 62.6444L78.3001 61.2925C78.8535 60.5828 78.7268 59.5588 78.0171 59.0054Z" fill="#35C85A"/>
<path d="M73.445 5.77246C73.3804 5.83855 73.2837 5.93339 73.1536 6.05149C70.906 7.48582 64.6237 10.8326 54.3145 11.3042C53.9317 11.3217 52.4394 11.3217 52.0565 11.3042C41.7474 10.8326 35.4651 7.48582 33.2175 6.05149C33.0874 5.9336 32.9907 5.83855 32.926 5.77246V10.36C32.9255 10.5287 32.969 10.6946 33.0521 10.8415C33.1352 10.9883 33.2551 11.1109 33.4001 11.1973C36.7505 13.1842 42.5859 15.4422 51.7914 15.4422H54.5797C63.7851 15.4422 69.6206 13.1842 72.971 11.1973C73.1159 11.1109 73.2358 10.9883 73.319 10.8415C73.4021 10.6946 73.4455 10.5287 73.445 10.36V5.77246Z" fill="#DEE8F5"/>
<path d="M73.439 5.70014C73.439 7.89549 64.3709 11.2975 53.1846 11.2975C41.9984 11.2975 32.927 7.04125 32.9302 5.70014C32.9398 2.60854 41.9984 0.102539 53.1846 0.102539C64.3709 0.102539 73.439 2.60935 73.439 5.70014Z" fill="#C1D8ED"/>
<path d="M61.4862 5.00049H44.8847V6.39953H61.4862V5.00049Z" fill="#DEE8F5"/>
</svg>
